solid
 facet normal -6.279052e-02 -9.980267e-01 -0.000000e+00
   outer loop
     vertex  6.279052e-01 -9.980267e+00  1.000000e+02
     vertex -1.873813e+00 -9.822873e+00  1.000000e+02
     vertex -1.873813e+00 -9.822873e+00  0.000000e+00
   endloop
 endfacet
 facet normal -6.279052e-02 -9.980267e-01  0.000000e+00
   outer loop
     vertex  6.279052e-01 -9.980267e+00  1.000000e+02
     vertex -1.873813e+00 -9.822873e+00  0.000000e+00
     vertex  6.279052e-01 -9.980267e+00  0.000000e+00
   endloop
 endfacet
 facet normal  1.873813e-01 -9.822873e-01  0.000000e+00
   outer loop
     vertex  3.090170e+00 -9.510565e+00  1.000000e+02
     vertex  6.279052e-01 -9.980267e+00  1.000000e+02
     vertex  6.279052e-01 -9.980267e+00  0.000000e+00
   endloop
 endfacet
 facet normal  1.873813e-01 -9.822873e-01  0.000000e+00
   outer loop
     vertex  3.090170e+00 -9.510565e+00  1.000000e+02
     vertex  6.279052e-01 -9.980267e+00  0.000000e+00
     vertex  3.090170e+00 -9.510565e+00  0.000000e+00
   endloop
 endfacet
 facet normal  9.921147e-01  1.253332e-01  0.000000e+00
   outer loop
     vertex  9.685832e+00  2.486899e+00  1.000000e+02
     vertex  1.000000e+01 -2.449294e-15  0.000000e+00
     vertex  9.685832e+00  2.486899e+00  0.000000e+00
   endloop
 endfacet
 facet normal  4.257793e-01 -9.048271e-01  0.000000e+00
   outer loop
     vertex  5.358268e+00 -8.443279e+00  1.000000e+02
     vertex  3.090170e+00 -9.510565e+00  1.000000e+02
     vertex  3.090170e+00 -9.510565e+00  0.000000e+00
   endloop
 endfacet
 facet normal  9.921147e-01  1.253332e-01  0.000000e+00
   outer loop
     vertex  9.685832e+00  2.486899e+00  1.000000e+02
     vertex  1.000000e+01 -2.449294e-15  1.000000e+02
     vertex  1.000000e+01 -2.449294e-15  0.000000e+00
   endloop
 endfacet
 facet normal  4.257793e-01 -9.048271e-01  0.000000e+00
   outer loop
     vertex  5.358268e+00 -8.443279e+00  1.000000e+02
     vertex  3.090170e+00 -9.510565e+00  0.000000e+00
     vertex  5.358268e+00 -8.443279e+00  0.000000e+00
   endloop
 endfacet
 facet normal  6.374240e-01 -7.705132e-01  0.000000e+00
   outer loop
     vertex  7.289686e+00 -6.845471e+00  1.000000e+02
     vertex  5.358268e+00 -8.443279e+00  1.000000e+02
     vertex  5.358268e+00 -8.443279e+00  0.000000e+00
   endloop
 endfacet
 facet normal  9.297765e-01  3.681246e-01  0.000000e+00
   outer loop
     vertex  8.763067e+00  4.817537e+00  1.000000e+02
     vertex  9.685832e+00  2.486899e+00  0.000000e+00
     vertex  8.763067e+00  4.817537e+00  0.000000e+00
   endloop
 endfacet
 facet normal  6.374240e-01 -7.705132e-01  0.000000e+00
   outer loop
     vertex  7.289686e+00 -6.845471e+00  1.000000e+02
     vertex  5.358268e+00 -8.443279e+00  0.000000e+00
     vertex  7.289686e+00 -6.845471e+00  0.000000e+00
   endloop
 endfacet
 facet normal  9.297765e-01  3.681246e-01  0.000000e+00
   outer loop
     vertex  8.763067e+00  4.817537e+00  1.000000e+02
     vertex  9.685832e+00  2.486899e+00  1.000000e+02
     vertex  9.685832e+00  2.486899e+00  0.000000e+00
   endloop
 endfacet
 facet normal  8.090170e-01 -5.877853e-01  0.000000e+00
   outer loop
     vertex  8.763067e+00 -4.817537e+00  1.000000e+02
     vertex  7.289686e+00 -6.845471e+00  0.000000e+00
     vertex  8.763067e+00 -4.817537e+00  0.000000e+00
   endloop
 endfacet
 facet normal  8.090170e-01 -5.877853e-01  0.000000e+00
   outer loop
     vertex  8.763067e+00 -4.817537e+00  1.000000e+02
     vertex  7.289686e+00 -6.845471e+00  1.000000e+02
     vertex  7.289686e+00 -6.845471e+00  0.000000e+00
   endloop
 endfacet
 facet normal  8.090170e-01  5.877853e-01  0.000000e+00
   outer loop
     vertex  7.289686e+00  6.845471e+00  1.000000e+02
     vertex  8.763067e+00  4.817537e+00  0.000000e+00
     vertex  7.289686e+00  6.845471e+00  0.000000e+00
   endloop
 endfacet
 facet normal  8.090170e-01  5.877853e-01  0.000000e+00
   outer loop
     vertex  7.289686e+00  6.845471e+00  1.000000e+02
     vertex  8.763067e+00  4.817537e+00  1.000000e+02
     vertex  8.763067e+00  4.817537e+00  0.000000e+00
   endloop
 endfacet
 facet normal  9.297765e-01 -3.681246e-01  0.000000e+00
   outer loop
     vertex  9.685832e+00 -2.486899e+00  1.000000e+02
     vertex  8.763067e+00 -4.817537e+00  1.000000e+02
     vertex  8.763067e+00 -4.817537e+00  0.000000e+00
   endloop
 endfacet
 facet normal  9.297765e-01 -3.681246e-01  0.000000e+00
   outer loop
     vertex  9.685832e+00 -2.486899e+00  1.000000e+02
     vertex  8.763067e+00 -4.817537e+00  0.000000e+00
     vertex  9.685832e+00 -2.486899e+00  0.000000e+00
   endloop
 endfacet
 facet normal  6.374240e-01  7.705132e-01  0.000000e+00
   outer loop
     vertex  5.358268e+00  8.443279e+00  1.000000e+02
     vertex  7.289686e+00  6.845471e+00  0.000000e+00
     vertex  5.358268e+00  8.443279e+00  0.000000e+00
   endloop
 endfacet
 facet normal  6.374240e-01  7.705132e-01  0.000000e+00
   outer loop
     vertex  5.358268e+00  8.443279e+00  1.000000e+02
     vertex  7.289686e+00  6.845471e+00  1.000000e+02
     vertex  7.289686e+00  6.845471e+00  0.000000e+00
   endloop
 endfacet
 facet normal  9.921147e-01 -1.253332e-01  0.000000e+00
   outer loop
     vertex  1.000000e+01 -2.449294e-15  1.000000e+02
     vertex  9.685832e+00 -2.486899e+00  0.000000e+00
     vertex  1.000000e+01 -2.449294e-15  0.000000e+00
   endloop
 endfacet
 facet normal  9.921147e-01 -1.253332e-01  0.000000e+00
   outer loop
     vertex  1.000000e+01 -2.449294e-15  1.000000e+02
     vertex  9.685832e+00 -2.486899e+00  1.000000e+02
     vertex  9.685832e+00 -2.486899e+00  0.000000e+00
   endloop
 endfacet
 facet normal  4.257793e-01  9.048271e-01  0.000000e+00
   outer loop
     vertex  3.090170e+00  9.510565e+00  1.000000e+02
     vertex  5.358268e+00  8.443279e+00  0.000000e+00
     vertex  3.090170e+00  9.510565e+00  0.000000e+00
   endloop
 endfacet
 facet normal  4.257793e-01  9.048271e-01  0.000000e+00
   outer loop
     vertex  3.090170e+00  9.510565e+00  1.000000e+02
     vertex  5.358268e+00  8.443279e+00  1.000000e+02
     vertex  5.358268e+00  8.443279e+00  0.000000e+00
   endloop
 endfacet
 facet normal  1.873813e-01  9.822873e-01  0.000000e+00
   outer loop
     vertex  6.279052e-01  9.980267e+00  1.000000e+02
     vertex  3.090170e+00  9.510565e+00  0.000000e+00
     vertex  6.279052e-01  9.980267e+00  0.000000e+00
   endloop
 endfacet
 facet normal  1.873813e-01  9.822873e-01  0.000000e+00
   outer loop
     vertex  6.279052e-01  9.980267e+00  1.000000e+02
     vertex  3.090170e+00  9.510565e+00  1.000000e+02
     vertex  3.090170e+00  9.510565e+00  0.000000e+00
   endloop
 endfacet
 facet normal -6.279052e-02  9.980267e-01  0.000000e+00
   outer loop
     vertex -1.873813e+00  9.822873e+00  1.000000e+02
     vertex  6.279052e-01  9.980267e+00  0.000000e+00
     vertex -1.873813e+00  9.822873e+00  0.000000e+00
   endloop
 endfacet
 facet normal -6.279052e-02  9.980267e-01  0.000000e+00
   outer loop
     vertex -1.873813e+00  9.822873e+00  1.000000e+02
     vertex  6.279052e-01  9.980267e+00  1.000000e+02
     vertex  6.279052e-01  9.980267e+00  0.000000e+00
   endloop
 endfacet
 facet normal -3.090170e-01  9.510565e-01  0.000000e+00
   outer loop
     vertex -4.257793e+00  9.048271e+00  1.000000e+02
     vertex -1.873813e+00  9.822873e+00  0.000000e+00
     vertex -4.257793e+00  9.048271e+00  0.000000e+00
   endloop
 endfacet
 facet normal -3.090170e-01  9.510565e-01  0.000000e+00
   outer loop
     vertex -4.257793e+00  9.048271e+00  1.000000e+02
     vertex -1.873813e+00  9.822873e+00  1.000000e+02
     vertex -1.873813e+00  9.822873e+00  0.000000e+00
   endloop
 endfacet
 facet normal -5.358268e-01  8.443279e-01  0.000000e+00
   outer loop
     vertex -6.374240e+00  7.705132e+00  1.000000e+02
     vertex -4.257793e+00  9.048271e+00  0.000000e+00
     vertex -6.374240e+00  7.705132e+00  0.000000e+00
   endloop
 endfacet
 facet normal -5.358268e-01  8.443279e-01  0.000000e+00
   outer loop
     vertex -6.374240e+00  7.705132e+00  1.000000e+02
     vertex -4.257793e+00  9.048271e+00  1.000000e+02
     vertex -4.257793e+00  9.048271e+00  0.000000e+00
   endloop
 endfacet
 facet normal -7.289686e-01  6.845471e-01  0.000000e+00
   outer loop
     vertex -8.090170e+00  5.877853e+00  1.000000e+02
     vertex -6.374240e+00  7.705132e+00  0.000000e+00
     vertex -8.090170e+00  5.877853e+00  0.000000e+00
   endloop
 endfacet
 facet normal -7.289686e-01  6.845471e-01  0.000000e+00
   outer loop
     vertex -8.090170e+00  5.877853e+00  1.000000e+02
     vertex -6.374240e+00  7.705132e+00  1.000000e+02
     vertex -6.374240e+00  7.705132e+00  0.000000e+00
   endloop
 endfacet
 facet normal -8.763067e-01  4.817537e-01  0.000000e+00
   outer loop
     vertex -9.297765e+00  3.681246e+00  1.000000e+02
     vertex -8.090170e+00  5.877853e+00  0.000000e+00
     vertex -9.297765e+00  3.681246e+00  0.000000e+00
   endloop
 endfacet
 facet normal -8.763067e-01  4.817537e-01  0.000000e+00
   outer loop
     vertex -9.297765e+00  3.681246e+00  1.000000e+02
     vertex -8.090170e+00  5.877853e+00  1.000000e+02
     vertex -8.090170e+00  5.877853e+00  0.000000e+00
   endloop
 endfacet
 facet normal -9.685832e-01  2.486899e-01  0.000000e+00
   outer loop
     vertex -9.921147e+00  1.253332e+00  1.000000e+02
     vertex -9.297765e+00  3.681246e+00  1.000000e+02
     vertex -9.297765e+00  3.681246e+00  0.000000e+00
   endloop
 endfacet
 facet normal -9.685832e-01  2.486899e-01  0.000000e+00
   outer loop
     vertex -9.921147e+00  1.253332e+00  1.000000e+02
     vertex -9.297765e+00  3.681246e+00  0.000000e+00
     vertex -9.921147e+00  1.253332e+00  0.000000e+00
   endloop
 endfacet
 facet normal -1.000000e+00  7.086536e-16  0.000000e+00
   outer loop
     vertex -9.921147e+00 -1.253332e+00  1.000000e+02
     vertex -9.921147e+00  1.253332e+00  1.000000e+02
     vertex -9.921147e+00  1.253332e+00  0.000000e+00
   endloop
 endfacet
 facet normal -1.000000e+00  7.086536e-16  0.000000e+00
   outer loop
     vertex -9.921147e+00 -1.253332e+00  1.000000e+02
     vertex -9.921147e+00  1.253332e+00  0.000000e+00
     vertex -9.921147e+00 -1.253332e+00  0.000000e+00
   endloop
 endfacet
 facet normal -9.685832e-01 -2.486899e-01 -0.000000e+00
   outer loop
     vertex -9.297765e+00 -3.681246e+00  1.000000e+02
     vertex -9.921147e+00 -1.253332e+00  1.000000e+02
     vertex -9.921147e+00 -1.253332e+00  0.000000e+00
   endloop
 endfacet
 facet normal -9.685832e-01 -2.486899e-01  0.000000e+00
   outer loop
     vertex -9.297765e+00 -3.681246e+00  1.000000e+02
     vertex -9.921147e+00 -1.253332e+00  0.000000e+00
     vertex -9.297765e+00 -3.681246e+00  0.000000e+00
   endloop
 endfacet
 facet normal -8.763067e-01 -4.817537e-01 -0.000000e+00
   outer loop
     vertex -8.090170e+00 -5.877853e+00  1.000000e+02
     vertex -9.297765e+00 -3.681246e+00  1.000000e+02
     vertex -9.297765e+00 -3.681246e+00  0.000000e+00
   endloop
 endfacet
 facet normal -8.763067e-01 -4.817537e-01  0.000000e+00
   outer loop
     vertex -8.090170e+00 -5.877853e+00  1.000000e+02
     vertex -9.297765e+00 -3.681246e+00  0.000000e+00
     vertex -8.090170e+00 -5.877853e+00  0.000000e+00
   endloop
 endfacet
 facet normal -7.289686e-01 -6.845471e-01 -0.000000e+00
   outer loop
     vertex -6.374240e+00 -7.705132e+00  1.000000e+02
     vertex -8.090170e+00 -5.877853e+00  1.000000e+02
     vertex -8.090170e+00 -5.877853e+00  0.000000e+00
   endloop
 endfacet
 facet normal -7.289686e-01 -6.845471e-01  0.000000e+00
   outer loop
     vertex -6.374240e+00 -7.705132e+00  1.000000e+02
     vertex -8.090170e+00 -5.877853e+00  0.000000e+00
     vertex -6.374240e+00 -7.705132e+00  0.000000e+00
   endloop
 endfacet
 facet normal -5.358268e-01 -8.443279e-01 -0.000000e+00
   outer loop
     vertex -4.257793e+00 -9.048271e+00  1.000000e+02
     vertex -6.374240e+00 -7.705132e+00  1.000000e+02
     vertex -6.374240e+00 -7.705132e+00  0.000000e+00
   endloop
 endfacet
 facet normal -5.358268e-01 -8.443279e-01  0.000000e+00
   outer loop
     vertex -4.257793e+00 -9.048271e+00  1.000000e+02
     vertex -6.374240e+00 -7.705132e+00  0.000000e+00
     vertex -4.257793e+00 -9.048271e+00  0.000000e+00
   endloop
 endfacet
 facet normal -3.090170e-01 -9.510565e-01 -0.000000e+00
   outer loop
     vertex -1.873813e+00 -9.822873e+00  1.000000e+02
     vertex -4.257793e+00 -9.048271e+00  1.000000e+02
     vertex -4.257793e+00 -9.048271e+00  0.000000e+00
   endloop
 endfacet
 facet normal -3.090170e-01 -9.510565e-01  0.000000e+00
   outer loop
     vertex -1.873813e+00 -9.822873e+00  1.000000e+02
     vertex -4.257793e+00 -9.048271e+00  0.000000e+00
     vertex -1.873813e+00 -9.822873e+00  0.000000e+00
   endloop
 endfacet
 facet normal -0.000000e+00  0.000000e+00  1.000000e+00
   outer loop
     vertex  6.279052e-01  9.980267e+00  1.000000e+02
     vertex -1.499051e+00  7.858298e+00  1.000000e+02
     vertex  5.023242e-01  7.984214e+00  1.000000e+02
   endloop
 endfacet
 facet normal  0.000000e+00  0.000000e+00  1.000000e+00
   outer loop
     vertex -6.374240e+00  7.705132e+00  1.000000e+02
     vertex -8.090170e+00  5.877853e+00  1.000000e+02
     vertex -6.472136e+00  4.702282e+00  1.000000e+02
   endloop
 endfacet
 facet normal -0.000000e+00  0.000000e+00  1.000000e+00
   outer loop
     vertex -6.374240e+00  7.705132e+00  1.000000e+02
     vertex -6.472136e+00  4.702282e+00  1.000000e+02
     vertex -5.099392e+00  6.164106e+00  1.000000e+02
   endloop
 endfacet
 facet normal  0.000000e+00  0.000000e+00  1.000000e+00
   outer loop
     vertex -6.472136e+00 -4.702282e+00  1.000000e+02
     vertex -8.090170e+00 -5.877853e+00  1.000000e+02
     vertex -6.374240e+00 -7.705132e+00  1.000000e+02
   endloop
 endfacet
 facet normal -0.000000e+00  0.000000e+00  1.000000e+00
   outer loop
     vertex -6.472136e+00 -4.702282e+00  1.000000e+02
     vertex -6.374240e+00 -7.705132e+00  1.000000e+02
     vertex -5.099392e+00 -6.164106e+00  1.000000e+02
   endloop
 endfacet
 facet normal  0.000000e+00  0.000000e+00  1.000000e+00
   outer loop
     vertex -3.406234e+00 -7.238616e+00  1.000000e+02
     vertex -6.374240e+00 -7.705132e+00  1.000000e+02
     vertex -4.257793e+00 -9.048271e+00  1.000000e+02
   endloop
 endfacet
 facet normal  0.000000e+00  0.000000e+00  1.000000e+00
   outer loop
     vertex  8.763067e+00 -4.817537e+00  1.000000e+02
     vertex  5.831749e+00 -5.476377e+00  1.000000e+02
     vertex  7.289686e+00 -6.845471e+00  1.000000e+02
   endloop
 endfacet
 facet normal  0.000000e+00  0.000000e+00  1.000000e+00
   outer loop
     vertex -3.406234e+00 -7.238616e+00  1.000000e+02
     vertex -5.099392e+00 -6.164106e+00  1.000000e+02
     vertex -6.374240e+00 -7.705132e+00  1.000000e+02
   endloop
 endfacet
 facet normal  0.000000e+00  0.000000e+00  1.000000e+00
   outer loop
     vertex  8.763067e+00 -4.817537e+00  1.000000e+02
     vertex  7.010453e+00 -3.854029e+00  1.000000e+02
     vertex  5.831749e+00 -5.476377e+00  1.000000e+02
   endloop
 endfacet
 facet normal  0.000000e+00  0.000000e+00  1.000000e+00
   outer loop
     vertex -4.257793e+00  9.048271e+00  1.000000e+02
     vertex -6.374240e+00  7.705132e+00  1.000000e+02
     vertex -5.099392e+00  6.164106e+00  1.000000e+02
   endloop
 endfacet
 facet normal  0.000000e+00  0.000000e+00  1.000000e+00
   outer loop
     vertex -7.438212e+00 -2.944996e+00  1.000000e+02
     vertex -9.297765e+00 -3.681246e+00  1.000000e+02
     vertex -8.090170e+00 -5.877853e+00  1.000000e+02
   endloop
 endfacet
 facet normal -0.000000e+00  0.000000e+00  1.000000e+00
   outer loop
     vertex -4.257793e+00  9.048271e+00  1.000000e+02
     vertex -5.099392e+00  6.164106e+00  1.000000e+02
     vertex -3.406234e+00  7.238616e+00  1.000000e+02
   endloop
 endfacet
 facet normal -0.000000e+00  0.000000e+00  1.000000e+00
   outer loop
     vertex -7.438212e+00 -2.944996e+00  1.000000e+02
     vertex -8.090170e+00 -5.877853e+00  1.000000e+02
     vertex -6.472136e+00 -4.702282e+00  1.000000e+02
   endloop
 endfacet
 facet normal  0.000000e+00  0.000000e+00  1.000000e+00
   outer loop
     vertex -1.499051e+00 -7.858298e+00  1.000000e+02
     vertex -4.257793e+00 -9.048271e+00  1.000000e+02
     vertex -1.873813e+00 -9.822873e+00  1.000000e+02
   endloop
 endfacet
 facet normal  0.000000e+00  0.000000e+00  1.000000e+00
   outer loop
     vertex -1.499051e+00 -7.858298e+00  1.000000e+02
     vertex -3.406234e+00 -7.238616e+00  1.000000e+02
     vertex -4.257793e+00 -9.048271e+00  1.000000e+02
   endloop
 endfacet
 facet normal  0.000000e+00  0.000000e+00  1.000000e+00
   outer loop
     vertex -7.936918e+00 -1.002666e+00  1.000000e+02
     vertex -9.921147e+00 -1.253332e+00  1.000000e+02
     vertex -9.297765e+00 -3.681246e+00  1.000000e+02
   endloop
 endfacet
 facet normal -0.000000e+00  0.000000e+00  1.000000e+00
   outer loop
     vertex -7.936918e+00 -1.002666e+00  1.000000e+02
     vertex -9.297765e+00 -3.681246e+00  1.000000e+02
     vertex -7.438212e+00 -2.944996e+00  1.000000e+02
   endloop
 endfacet
 facet normal  0.000000e+00  0.000000e+00  1.000000e+00
   outer loop
     vertex  9.685832e+00  2.486899e+00  1.000000e+02
     vertex  7.748665e+00  1.989519e+00  1.000000e+02
     vertex  8.000000e+00 -1.959435e-15  1.000000e+02
   endloop
 endfacet
 facet normal  0.000000e+00  0.000000e+00  1.000000e+00
   outer loop
     vertex  9.685832e+00  2.486899e+00  1.000000e+02
     vertex  8.000000e+00 -1.959435e-15  1.000000e+02
     vertex  1.000000e+01 -2.449294e-15  1.000000e+02
   endloop
 endfacet
 facet normal  0.000000e+00  0.000000e+00  1.000000e+00
   outer loop
     vertex  5.023242e-01 -7.984214e+00  1.000000e+02
     vertex -1.873813e+00 -9.822873e+00  1.000000e+02
     vertex  6.279052e-01 -9.980267e+00  1.000000e+02
   endloop
 endfacet
 facet normal  0.000000e+00  0.000000e+00  1.000000e+00
   outer loop
     vertex  3.090170e+00  9.510565e+00  1.000000e+02
     vertex  5.023242e-01  7.984214e+00  1.000000e+02
     vertex  2.472136e+00  7.608452e+00  1.000000e+02
   endloop
 endfacet
 facet normal  0.000000e+00  0.000000e+00  1.000000e+00
   outer loop
     vertex  3.090170e+00  9.510565e+00  1.000000e+02
     vertex  6.279052e-01  9.980267e+00  1.000000e+02
     vertex  5.023242e-01  7.984214e+00  1.000000e+02
   endloop
 endfacet
 facet normal  0.000000e+00  0.000000e+00  1.000000e+00
   outer loop
     vertex  5.023242e-01 -7.984214e+00  1.000000e+02
     vertex -1.499051e+00 -7.858298e+00  1.000000e+02
     vertex -1.873813e+00 -9.822873e+00  1.000000e+02
   endloop
 endfacet
 facet normal  0.000000e+00  0.000000e+00  1.000000e+00
   outer loop
     vertex  8.763067e+00  4.817537e+00  1.000000e+02
     vertex  7.010453e+00  3.854029e+00  1.000000e+02
     vertex  7.748665e+00  1.989519e+00  1.000000e+02
   endloop
 endfacet
 facet normal  0.000000e+00  0.000000e+00  1.000000e+00
   outer loop
     vertex -7.936918e+00  1.002666e+00  1.000000e+02
     vertex -9.921147e+00  1.253332e+00  1.000000e+02
     vertex -9.921147e+00 -1.253332e+00  1.000000e+02
   endloop
 endfacet
 facet normal  0.000000e+00  0.000000e+00  1.000000e+00
   outer loop
     vertex  9.685832e+00 -2.486899e+00  1.000000e+02
     vertex  7.010453e+00 -3.854029e+00  1.000000e+02
     vertex  8.763067e+00 -4.817537e+00  1.000000e+02
   endloop
 endfacet
 facet normal -0.000000e+00  0.000000e+00  1.000000e+00
   outer loop
     vertex  8.763067e+00  4.817537e+00  1.000000e+02
     vertex  7.748665e+00  1.989519e+00  1.000000e+02
     vertex  9.685832e+00  2.486899e+00  1.000000e+02
   endloop
 endfacet
 facet normal  0.000000e+00  0.000000e+00  1.000000e+00
   outer loop
     vertex  9.685832e+00 -2.486899e+00  1.000000e+02
     vertex  7.748665e+00 -1.989519e+00  1.000000e+02
     vertex  7.010453e+00 -3.854029e+00  1.000000e+02
   endloop
 endfacet
 facet normal  0.000000e+00  0.000000e+00  1.000000e+00
   outer loop
     vertex -1.873813e+00  9.822873e+00  1.000000e+02
     vertex -4.257793e+00  9.048271e+00  1.000000e+02
     vertex -3.406234e+00  7.238616e+00  1.000000e+02
   endloop
 endfacet
 facet normal -0.000000e+00  0.000000e+00  1.000000e+00
   outer loop
     vertex -7.936918e+00  1.002666e+00  1.000000e+02
     vertex -9.921147e+00 -1.253332e+00  1.000000e+02
     vertex -7.936918e+00 -1.002666e+00  1.000000e+02
   endloop
 endfacet
 facet normal  0.000000e+00  0.000000e+00  1.000000e+00
   outer loop
     vertex  5.358268e+00  8.443279e+00  1.000000e+02
     vertex  2.472136e+00  7.608452e+00  1.000000e+02
     vertex  4.286614e+00  6.754623e+00  1.000000e+02
   endloop
 endfacet
 facet normal -0.000000e+00  0.000000e+00  1.000000e+00
   outer loop
     vertex -1.873813e+00  9.822873e+00  1.000000e+02
     vertex -3.406234e+00  7.238616e+00  1.000000e+02
     vertex -1.499051e+00  7.858298e+00  1.000000e+02
   endloop
 endfacet
 facet normal  0.000000e+00  0.000000e+00  1.000000e+00
   outer loop
     vertex  5.358268e+00  8.443279e+00  1.000000e+02
     vertex  3.090170e+00  9.510565e+00  1.000000e+02
     vertex  2.472136e+00  7.608452e+00  1.000000e+02
   endloop
 endfacet
 facet normal  0.000000e+00  0.000000e+00  1.000000e+00
   outer loop
     vertex  7.289686e+00  6.845471e+00  1.000000e+02
     vertex  5.831749e+00  5.476377e+00  1.000000e+02
     vertex  7.010453e+00  3.854029e+00  1.000000e+02
   endloop
 endfacet
 facet normal  0.000000e+00  0.000000e+00  1.000000e+00
   outer loop
     vertex  7.289686e+00  6.845471e+00  1.000000e+02
     vertex  4.286614e+00  6.754623e+00  1.000000e+02
     vertex  5.831749e+00  5.476377e+00  1.000000e+02
   endloop
 endfacet
 facet normal  0.000000e+00  0.000000e+00  1.000000e+00
   outer loop
     vertex  7.289686e+00  6.845471e+00  1.000000e+02
     vertex  5.358268e+00  8.443279e+00  1.000000e+02
     vertex  4.286614e+00  6.754623e+00  1.000000e+02
   endloop
 endfacet
 facet normal -0.000000e+00  0.000000e+00  1.000000e+00
   outer loop
     vertex  2.472136e+00 -7.608452e+00  1.000000e+02
     vertex  6.279052e-01 -9.980267e+00  1.000000e+02
     vertex  3.090170e+00 -9.510565e+00  1.000000e+02
   endloop
 endfacet
 facet normal -0.000000e+00  0.000000e+00  1.000000e+00
   outer loop
     vertex  7.289686e+00  6.845471e+00  1.000000e+02
     vertex  7.010453e+00  3.854029e+00  1.000000e+02
     vertex  8.763067e+00  4.817537e+00  1.000000e+02
   endloop
 endfacet
 facet normal  0.000000e+00  0.000000e+00  1.000000e+00
   outer loop
     vertex  2.472136e+00 -7.608452e+00  1.000000e+02
     vertex  5.023242e-01 -7.984214e+00  1.000000e+02
     vertex  6.279052e-01 -9.980267e+00  1.000000e+02
   endloop
 endfacet
 facet normal  0.000000e+00  0.000000e+00  1.000000e+00
   outer loop
     vertex -7.438212e+00  2.944996e+00  1.000000e+02
     vertex -9.297765e+00  3.681246e+00  1.000000e+02
     vertex -9.921147e+00  1.253332e+00  1.000000e+02
   endloop
 endfacet
 facet normal  0.000000e+00  0.000000e+00  1.000000e+00
   outer loop
     vertex -7.438212e+00  2.944996e+00  1.000000e+02
     vertex -9.921147e+00  1.253332e+00  1.000000e+02
     vertex -7.936918e+00  1.002666e+00  1.000000e+02
   endloop
 endfacet
 facet normal -0.000000e+00  0.000000e+00  1.000000e+00
   outer loop
     vertex  4.286614e+00 -6.754623e+00  1.000000e+02
     vertex  3.090170e+00 -9.510565e+00  1.000000e+02
     vertex  5.358268e+00 -8.443279e+00  1.000000e+02
   endloop
 endfacet
 facet normal  0.000000e+00  0.000000e+00  1.000000e+00
   outer loop
     vertex  4.286614e+00 -6.754623e+00  1.000000e+02
     vertex  2.472136e+00 -7.608452e+00  1.000000e+02
     vertex  3.090170e+00 -9.510565e+00  1.000000e+02
   endloop
 endfacet
 facet normal  0.000000e+00  0.000000e+00  1.000000e+00
   outer loop
     vertex -6.472136e+00  4.702282e+00  1.000000e+02
     vertex -8.090170e+00  5.877853e+00  1.000000e+02
     vertex -9.297765e+00  3.681246e+00  1.000000e+02
   endloop
 endfacet
 facet normal  0.000000e+00  0.000000e+00  1.000000e+00
   outer loop
     vertex -6.472136e+00  4.702282e+00  1.000000e+02
     vertex -9.297765e+00  3.681246e+00  1.000000e+02
     vertex -7.438212e+00  2.944996e+00  1.000000e+02
   endloop
 endfacet
 facet normal  0.000000e+00  0.000000e+00  1.000000e+00
   outer loop
     vertex  1.000000e+01 -2.449294e-15  1.000000e+02
     vertex  7.748665e+00 -1.989519e+00  1.000000e+02
     vertex  9.685832e+00 -2.486899e+00  1.000000e+02
   endloop
 endfacet
 facet normal  0.000000e+00  0.000000e+00  1.000000e+00
   outer loop
     vertex  1.000000e+01 -2.449294e-15  1.000000e+02
     vertex  8.000000e+00 -1.959435e-15  1.000000e+02
     vertex  7.748665e+00 -1.989519e+00  1.000000e+02
   endloop
 endfacet
 facet normal  0.000000e+00  0.000000e+00  1.000000e+00
   outer loop
     vertex  7.289686e+00 -6.845471e+00  1.000000e+02
     vertex  5.831749e+00 -5.476377e+00  1.000000e+02
     vertex  4.286614e+00 -6.754623e+00  1.000000e+02
   endloop
 endfacet
 facet normal  0.000000e+00  0.000000e+00  1.000000e+00
   outer loop
     vertex  7.289686e+00 -6.845471e+00  1.000000e+02
     vertex  4.286614e+00 -6.754623e+00  1.000000e+02
     vertex  5.358268e+00 -8.443279e+00  1.000000e+02
   endloop
 endfacet
 facet normal  0.000000e+00  0.000000e+00  1.000000e+00
   outer loop
     vertex  6.279052e-01  9.980267e+00  1.000000e+02
     vertex -1.873813e+00  9.822873e+00  1.000000e+02
     vertex -1.499051e+00  7.858298e+00  1.000000e+02
   endloop
 endfacet
 facet normal -0.000000e+00  0.000000e+00 -1.000000e+00
   outer loop
     vertex  5.023242e-01  7.984214e+00  0.000000e+00
     vertex -1.499051e+00  7.858298e+00  0.000000e+00
     vertex  6.279052e-01  9.980267e+00  0.000000e+00
   endloop
 endfacet
 facet normal  0.000000e+00  0.000000e+00 -1.000000e+00
   outer loop
     vertex -6.472136e+00  4.702282e+00  0.000000e+00
     vertex -8.090170e+00  5.877853e+00  0.000000e+00
     vertex -6.374240e+00  7.705132e+00  0.000000e+00
   endloop
 endfacet
 facet normal -0.000000e+00  0.000000e+00 -1.000000e+00
   outer loop
     vertex -5.099392e+00  6.164106e+00  0.000000e+00
     vertex -6.472136e+00  4.702282e+00  0.000000e+00
     vertex -6.374240e+00  7.705132e+00  0.000000e+00
   endloop
 endfacet
 facet normal  0.000000e+00  0.000000e+00 -1.000000e+00
   outer loop
     vertex -6.374240e+00 -7.705132e+00  0.000000e+00
     vertex -8.090170e+00 -5.877853e+00  0.000000e+00
     vertex -6.472136e+00 -4.702282e+00  0.000000e+00
   endloop
 endfacet
 facet normal -0.000000e+00  0.000000e+00 -1.000000e+00
   outer loop
     vertex -5.099392e+00 -6.164106e+00  0.000000e+00
     vertex -6.374240e+00 -7.705132e+00  0.000000e+00
     vertex -6.472136e+00 -4.702282e+00  0.000000e+00
   endloop
 endfacet
 facet normal  0.000000e+00  0.000000e+00 -1.000000e+00
   outer loop
     vertex -4.257793e+00 -9.048271e+00  0.000000e+00
     vertex -6.374240e+00 -7.705132e+00  0.000000e+00
     vertex -3.406234e+00 -7.238616e+00  0.000000e+00
   endloop
 endfacet
 facet normal  0.000000e+00  0.000000e+00 -1.000000e+00
   outer loop
     vertex  7.289686e+00 -6.845471e+00  0.000000e+00
     vertex  5.831749e+00 -5.476377e+00  0.000000e+00
     vertex  8.763067e+00 -4.817537e+00  0.000000e+00
   endloop
 endfacet
 facet normal  0.000000e+00  0.000000e+00 -1.000000e+00
   outer loop
     vertex -6.374240e+00 -7.705132e+00  0.000000e+00
     vertex -5.099392e+00 -6.164106e+00  0.000000e+00
     vertex -3.406234e+00 -7.238616e+00  0.000000e+00
   endloop
 endfacet
 facet normal  0.000000e+00  0.000000e+00 -1.000000e+00
   outer loop
     vertex  5.831749e+00 -5.476377e+00  0.000000e+00
     vertex  7.010453e+00 -3.854029e+00  0.000000e+00
     vertex  8.763067e+00 -4.817537e+00  0.000000e+00
   endloop
 endfacet
 facet normal  0.000000e+00  0.000000e+00 -1.000000e+00
   outer loop
     vertex -5.099392e+00  6.164106e+00  0.000000e+00
     vertex -6.374240e+00  7.705132e+00  0.000000e+00
     vertex -4.257793e+00  9.048271e+00  0.000000e+00
   endloop
 endfacet
 facet normal  0.000000e+00  0.000000e+00 -1.000000e+00
   outer loop
     vertex -8.090170e+00 -5.877853e+00  0.000000e+00
     vertex -9.297765e+00 -3.681246e+00  0.000000e+00
     vertex -7.438212e+00 -2.944996e+00  0.000000e+00
   endloop
 endfacet
 facet normal -0.000000e+00  0.000000e+00 -1.000000e+00
   outer loop
     vertex -3.406234e+00  7.238616e+00  0.000000e+00
     vertex -5.099392e+00  6.164106e+00  0.000000e+00
     vertex -4.257793e+00  9.048271e+00  0.000000e+00
   endloop
 endfacet
 facet normal -0.000000e+00  0.000000e+00 -1.000000e+00
   outer loop
     vertex -6.472136e+00 -4.702282e+00  0.000000e+00
     vertex -8.090170e+00 -5.877853e+00  0.000000e+00
     vertex -7.438212e+00 -2.944996e+00  0.000000e+00
   endloop
 endfacet
 facet normal  0.000000e+00  0.000000e+00 -1.000000e+00
   outer loop
     vertex -1.873813e+00 -9.822873e+00  0.000000e+00
     vertex -4.257793e+00 -9.048271e+00  0.000000e+00
     vertex -1.499051e+00 -7.858298e+00  0.000000e+00
   endloop
 endfacet
 facet normal  0.000000e+00  0.000000e+00 -1.000000e+00
   outer loop
     vertex -4.257793e+00 -9.048271e+00  0.000000e+00
     vertex -3.406234e+00 -7.238616e+00  0.000000e+00
     vertex -1.499051e+00 -7.858298e+00  0.000000e+00
   endloop
 endfacet
 facet normal  0.000000e+00  0.000000e+00 -1.000000e+00
   outer loop
     vertex -9.297765e+00 -3.681246e+00  0.000000e+00
     vertex -9.921147e+00 -1.253332e+00  0.000000e+00
     vertex -7.936918e+00 -1.002666e+00  0.000000e+00
   endloop
 endfacet
 facet normal -0.000000e+00  0.000000e+00 -1.000000e+00
   outer loop
     vertex -7.438212e+00 -2.944996e+00  0.000000e+00
     vertex -9.297765e+00 -3.681246e+00  0.000000e+00
     vertex -7.936918e+00 -1.002666e+00  0.000000e+00
   endloop
 endfacet
 facet normal  0.000000e+00  0.000000e+00 -1.000000e+00
   outer loop
     vertex  8.000000e+00 -1.959435e-15  0.000000e+00
     vertex  7.748665e+00  1.989519e+00  0.000000e+00
     vertex  9.685832e+00  2.486899e+00  0.000000e+00
   endloop
 endfacet
 facet normal  0.000000e+00  0.000000e+00 -1.000000e+00
   outer loop
     vertex  1.000000e+01 -2.449294e-15  0.000000e+00
     vertex  8.000000e+00 -1.959435e-15  0.000000e+00
     vertex  9.685832e+00  2.486899e+00  0.000000e+00
   endloop
 endfacet
 facet normal  0.000000e+00  0.000000e+00 -1.000000e+00
   outer loop
     vertex  6.279052e-01 -9.980267e+00  0.000000e+00
     vertex -1.873813e+00 -9.822873e+00  0.000000e+00
     vertex  5.023242e-01 -7.984214e+00  0.000000e+00
   endloop
 endfacet
 facet normal  0.000000e+00  0.000000e+00 -1.000000e+00
   outer loop
     vertex  2.472136e+00  7.608452e+00  0.000000e+00
     vertex  5.023242e-01  7.984214e+00  0.000000e+00
     vertex  3.090170e+00  9.510565e+00  0.000000e+00
   endloop
 endfacet
 facet normal  0.000000e+00  0.000000e+00 -1.000000e+00
   outer loop
     vertex  5.023242e-01  7.984214e+00  0.000000e+00
     vertex  6.279052e-01  9.980267e+00  0.000000e+00
     vertex  3.090170e+00  9.510565e+00  0.000000e+00
   endloop
 endfacet
 facet normal  0.000000e+00  0.000000e+00 -1.000000e+00
   outer loop
     vertex -1.873813e+00 -9.822873e+00  0.000000e+00
     vertex -1.499051e+00 -7.858298e+00  0.000000e+00
     vertex  5.023242e-01 -7.984214e+00  0.000000e+00
   endloop
 endfacet
 facet normal  0.000000e+00  0.000000e+00 -1.000000e+00
   outer loop
     vertex  7.748665e+00  1.989519e+00  0.000000e+00
     vertex  7.010453e+00  3.854029e+00  0.000000e+00
     vertex  8.763067e+00  4.817537e+00  0.000000e+00
   endloop
 endfacet
 facet normal  0.000000e+00  0.000000e+00 -1.000000e+00
   outer loop
     vertex -9.921147e+00 -1.253332e+00  0.000000e+00
     vertex -9.921147e+00  1.253332e+00  0.000000e+00
     vertex -7.936918e+00  1.002666e+00  0.000000e+00
   endloop
 endfacet
 facet normal  0.000000e+00  0.000000e+00 -1.000000e+00
   outer loop
     vertex  8.763067e+00 -4.817537e+00  0.000000e+00
     vertex  7.010453e+00 -3.854029e+00  0.000000e+00
     vertex  9.685832e+00 -2.486899e+00  0.000000e+00
   endloop
 endfacet
 facet normal -0.000000e+00  0.000000e+00 -1.000000e+00
   outer loop
     vertex  9.685832e+00  2.486899e+00  0.000000e+00
     vertex  7.748665e+00  1.989519e+00  0.000000e+00
     vertex  8.763067e+00  4.817537e+00  0.000000e+00
   endloop
 endfacet
 facet normal  0.000000e+00  0.000000e+00 -1.000000e+00
   outer loop
     vertex  7.010453e+00 -3.854029e+00  0.000000e+00
     vertex  7.748665e+00 -1.989519e+00  0.000000e+00
     vertex  9.685832e+00 -2.486899e+00  0.000000e+00
   endloop
 endfacet
 facet normal  0.000000e+00  0.000000e+00 -1.000000e+00
   outer loop
     vertex -3.406234e+00  7.238616e+00  0.000000e+00
     vertex -4.257793e+00  9.048271e+00  0.000000e+00
     vertex -1.873813e+00  9.822873e+00  0.000000e+00
   endloop
 endfacet
 facet normal -0.000000e+00  0.000000e+00 -1.000000e+00
   outer loop
     vertex -7.936918e+00 -1.002666e+00  0.000000e+00
     vertex -9.921147e+00 -1.253332e+00  0.000000e+00
     vertex -7.936918e+00  1.002666e+00  0.000000e+00
   endloop
 endfacet
 facet normal  0.000000e+00  0.000000e+00 -1.000000e+00
   outer loop
     vertex  4.286614e+00  6.754623e+00  0.000000e+00
     vertex  2.472136e+00  7.608452e+00  0.000000e+00
     vertex  5.358268e+00  8.443279e+00  0.000000e+00
   endloop
 endfacet
 facet normal -0.000000e+00  0.000000e+00 -1.000000e+00
   outer loop
     vertex -1.499051e+00  7.858298e+00  0.000000e+00
     vertex -3.406234e+00  7.238616e+00  0.000000e+00
     vertex -1.873813e+00  9.822873e+00  0.000000e+00
   endloop
 endfacet
 facet normal  0.000000e+00  0.000000e+00 -1.000000e+00
   outer loop
     vertex  2.472136e+00  7.608452e+00  0.000000e+00
     vertex  3.090170e+00  9.510565e+00  0.000000e+00
     vertex  5.358268e+00  8.443279e+00  0.000000e+00
   endloop
 endfacet
 facet normal  0.000000e+00  0.000000e+00 -1.000000e+00
   outer loop
     vertex  7.010453e+00  3.854029e+00  0.000000e+00
     vertex  5.831749e+00  5.476377e+00  0.000000e+00
     vertex  7.289686e+00  6.845471e+00  0.000000e+00
   endloop
 endfacet
 facet normal  0.000000e+00  0.000000e+00 -1.000000e+00
   outer loop
     vertex  5.831749e+00  5.476377e+00  0.000000e+00
     vertex  4.286614e+00  6.754623e+00  0.000000e+00
     vertex  7.289686e+00  6.845471e+00  0.000000e+00
   endloop
 endfacet
 facet normal  0.000000e+00  0.000000e+00 -1.000000e+00
   outer loop
     vertex  4.286614e+00  6.754623e+00  0.000000e+00
     vertex  5.358268e+00  8.443279e+00  0.000000e+00
     vertex  7.289686e+00  6.845471e+00  0.000000e+00
   endloop
 endfacet
 facet normal -0.000000e+00  0.000000e+00 -1.000000e+00
   outer loop
     vertex  3.090170e+00 -9.510565e+00  0.000000e+00
     vertex  6.279052e-01 -9.980267e+00  0.000000e+00
     vertex  2.472136e+00 -7.608452e+00  0.000000e+00
   endloop
 endfacet
 facet normal -0.000000e+00  0.000000e+00 -1.000000e+00
   outer loop
     vertex  8.763067e+00  4.817537e+00  0.000000e+00
     vertex  7.010453e+00  3.854029e+00  0.000000e+00
     vertex  7.289686e+00  6.845471e+00  0.000000e+00
   endloop
 endfacet
 facet normal  0.000000e+00  0.000000e+00 -1.000000e+00
   outer loop
     vertex  6.279052e-01 -9.980267e+00  0.000000e+00
     vertex  5.023242e-01 -7.984214e+00  0.000000e+00
     vertex  2.472136e+00 -7.608452e+00  0.000000e+00
   endloop
 endfacet
 facet normal  0.000000e+00  0.000000e+00 -1.000000e+00
   outer loop
     vertex -9.921147e+00  1.253332e+00  0.000000e+00
     vertex -9.297765e+00  3.681246e+00  0.000000e+00
     vertex -7.438212e+00  2.944996e+00  0.000000e+00
   endloop
 endfacet
 facet normal  0.000000e+00  0.000000e+00 -1.000000e+00
   outer loop
     vertex -7.936918e+00  1.002666e+00  0.000000e+00
     vertex -9.921147e+00  1.253332e+00  0.000000e+00
     vertex -7.438212e+00  2.944996e+00  0.000000e+00
   endloop
 endfacet
 facet normal -0.000000e+00  0.000000e+00 -1.000000e+00
   outer loop
     vertex  5.358268e+00 -8.443279e+00  0.000000e+00
     vertex  3.090170e+00 -9.510565e+00  0.000000e+00
     vertex  4.286614e+00 -6.754623e+00  0.000000e+00
   endloop
 endfacet
 facet normal  0.000000e+00  0.000000e+00 -1.000000e+00
   outer loop
     vertex  3.090170e+00 -9.510565e+00  0.000000e+00
     vertex  2.472136e+00 -7.608452e+00  0.000000e+00
     vertex  4.286614e+00 -6.754623e+00  0.000000e+00
   endloop
 endfacet
 facet normal  0.000000e+00  0.000000e+00 -1.000000e+00
   outer loop
     vertex -9.297765e+00  3.681246e+00  0.000000e+00
     vertex -8.090170e+00  5.877853e+00  0.000000e+00
     vertex -6.472136e+00  4.702282e+00  0.000000e+00
   endloop
 endfacet
 facet normal  0.000000e+00  0.000000e+00 -1.000000e+00
   outer loop
     vertex -7.438212e+00  2.944996e+00  0.000000e+00
     vertex -9.297765e+00  3.681246e+00  0.000000e+00
     vertex -6.472136e+00  4.702282e+00  0.000000e+00
   endloop
 endfacet
 facet normal  0.000000e+00  0.000000e+00 -1.000000e+00
   outer loop
     vertex  9.685832e+00 -2.486899e+00  0.000000e+00
     vertex  7.748665e+00 -1.989519e+00  0.000000e+00
     vertex  1.000000e+01 -2.449294e-15  0.000000e+00
   endloop
 endfacet
 facet normal  0.000000e+00  0.000000e+00 -1.000000e+00
   outer loop
     vertex  7.748665e+00 -1.989519e+00  0.000000e+00
     vertex  8.000000e+00 -1.959435e-15  0.000000e+00
     vertex  1.000000e+01 -2.449294e-15  0.000000e+00
   endloop
 endfacet
 facet normal  0.000000e+00  0.000000e+00 -1.000000e+00
   outer loop
     vertex  4.286614e+00 -6.754623e+00  0.000000e+00
     vertex  5.831749e+00 -5.476377e+00  0.000000e+00
     vertex  7.289686e+00 -6.845471e+00  0.000000e+00
   endloop
 endfacet
 facet normal  0.000000e+00  0.000000e+00 -1.000000e+00
   outer loop
     vertex  5.358268e+00 -8.443279e+00  0.000000e+00
     vertex  4.286614e+00 -6.754623e+00  0.000000e+00
     vertex  7.289686e+00 -6.845471e+00  0.000000e+00
   endloop
 endfacet
 facet normal  0.000000e+00  0.000000e+00 -1.000000e+00
   outer loop
     vertex -1.499051e+00  7.858298e+00  0.000000e+00
     vertex -1.873813e+00  9.822873e+00  0.000000e+00
     vertex  6.279052e-01  9.980267e+00  0.000000e+00
   endloop
 endfacet
 facet normal  6.279052e-02  9.980267e-01  0.000000e+00
   outer loop
     vertex  5.023242e-01 -7.984214e+00  0.000000e+00
     vertex -1.499051e+00 -7.858298e+00  0.000000e+00
     vertex  5.023242e-01 -7.984214e+00  1.000000e+02
   endloop
 endfacet
 facet normal  6.279052e-02  9.980267e-01 -0.000000e+00
   outer loop
     vertex -1.499051e+00 -7.858298e+00  0.000000e+00
     vertex -1.499051e+00 -7.858298e+00  1.000000e+02
     vertex  5.023242e-01 -7.984214e+00  1.000000e+02
   endloop
 endfacet
 facet normal -1.873813e-01  9.822873e-01  0.000000e+00
   outer loop
     vertex  2.472136e+00 -7.608452e+00  0.000000e+00
     vertex  5.023242e-01 -7.984214e+00  0.000000e+00
     vertex  2.472136e+00 -7.608452e+00  1.000000e+02
   endloop
 endfacet
 facet normal -1.873813e-01  9.822873e-01  0.000000e+00
   outer loop
     vertex  5.023242e-01 -7.984214e+00  0.000000e+00
     vertex  5.023242e-01 -7.984214e+00  1.000000e+02
     vertex  2.472136e+00 -7.608452e+00  1.000000e+02
   endloop
 endfacet
 facet normal -4.257793e-01  9.048271e-01  0.000000e+00
   outer loop
     vertex  4.286614e+00 -6.754623e+00  0.000000e+00
     vertex  2.472136e+00 -7.608452e+00  0.000000e+00
     vertex  4.286614e+00 -6.754623e+00  1.000000e+02
   endloop
 endfacet
 facet normal -9.921147e-01 -1.253332e-01  0.000000e+00
   outer loop
     vertex  7.748665e+00  1.989519e+00  0.000000e+00
     vertex  8.000000e+00 -1.959435e-15  0.000000e+00
     vertex  7.748665e+00  1.989519e+00  1.000000e+02
   endloop
 endfacet
 facet normal -4.257793e-01  9.048271e-01  0.000000e+00
   outer loop
     vertex  2.472136e+00 -7.608452e+00  0.000000e+00
     vertex  2.472136e+00 -7.608452e+00  1.000000e+02
     vertex  4.286614e+00 -6.754623e+00  1.000000e+02
   endloop
 endfacet
 facet normal -9.921147e-01 -1.253332e-01  0.000000e+00
   outer loop
     vertex  8.000000e+00 -1.959435e-15  0.000000e+00
     vertex  8.000000e+00 -1.959435e-15  1.000000e+02
     vertex  7.748665e+00  1.989519e+00  1.000000e+02
   endloop
 endfacet
 facet normal -6.374240e-01  7.705132e-01  0.000000e+00
   outer loop
     vertex  5.831749e+00 -5.476377e+00  0.000000e+00
     vertex  4.286614e+00 -6.754623e+00  0.000000e+00
     vertex  5.831749e+00 -5.476377e+00  1.000000e+02
   endloop
 endfacet
 facet normal -9.297765e-01 -3.681246e-01  0.000000e+00
   outer loop
     vertex  7.010453e+00  3.854029e+00  0.000000e+00
     vertex  7.748665e+00  1.989519e+00  0.000000e+00
     vertex  7.010453e+00  3.854029e+00  1.000000e+02
   endloop
 endfacet
 facet normal -6.374240e-01  7.705132e-01  0.000000e+00
   outer loop
     vertex  4.286614e+00 -6.754623e+00  0.000000e+00
     vertex  4.286614e+00 -6.754623e+00  1.000000e+02
     vertex  5.831749e+00 -5.476377e+00  1.000000e+02
   endloop
 endfacet
 facet normal -9.297765e-01 -3.681246e-01  0.000000e+00
   outer loop
     vertex  7.748665e+00  1.989519e+00  0.000000e+00
     vertex  7.748665e+00  1.989519e+00  1.000000e+02
     vertex  7.010453e+00  3.854029e+00  1.000000e+02
   endloop
 endfacet
 facet normal -8.090170e-01  5.877853e-01  0.000000e+00
   outer loop
     vertex  7.010453e+00 -3.854029e+00  0.000000e+00
     vertex  5.831749e+00 -5.476377e+00  0.000000e+00
     vertex  7.010453e+00 -3.854029e+00  1.000000e+02
   endloop
 endfacet
 facet normal -8.090170e-01  5.877853e-01  0.000000e+00
   outer loop
     vertex  5.831749e+00 -5.476377e+00  0.000000e+00
     vertex  5.831749e+00 -5.476377e+00  1.000000e+02
     vertex  7.010453e+00 -3.854029e+00  1.000000e+02
   endloop
 endfacet
 facet normal -8.090170e-01 -5.877853e-01  0.000000e+00
   outer loop
     vertex  5.831749e+00  5.476377e+00  0.000000e+00
     vertex  7.010453e+00  3.854029e+00  0.000000e+00
     vertex  5.831749e+00  5.476377e+00  1.000000e+02
   endloop
 endfacet
 facet normal -8.090170e-01 -5.877853e-01  0.000000e+00
   outer loop
     vertex  7.010453e+00  3.854029e+00  0.000000e+00
     vertex  7.010453e+00  3.854029e+00  1.000000e+02
     vertex  5.831749e+00  5.476377e+00  1.000000e+02
   endloop
 endfacet
 facet normal -9.297765e-01  3.681246e-01  0.000000e+00
   outer loop
     vertex  7.748665e+00 -1.989519e+00  0.000000e+00
     vertex  7.010453e+00 -3.854029e+00  0.000000e+00
     vertex  7.748665e+00 -1.989519e+00  1.000000e+02
   endloop
 endfacet
 facet normal -9.297765e-01  3.681246e-01  0.000000e+00
   outer loop
     vertex  7.010453e+00 -3.854029e+00  0.000000e+00
     vertex  7.010453e+00 -3.854029e+00  1.000000e+02
     vertex  7.748665e+00 -1.989519e+00  1.000000e+02
   endloop
 endfacet
 facet normal -6.374240e-01 -7.705132e-01  0.000000e+00
   outer loop
     vertex  4.286614e+00  6.754623e+00  0.000000e+00
     vertex  5.831749e+00  5.476377e+00  0.000000e+00
     vertex  4.286614e+00  6.754623e+00  1.000000e+02
   endloop
 endfacet
 facet normal -6.374240e-01 -7.705132e-01  0.000000e+00
   outer loop
     vertex  5.831749e+00  5.476377e+00  0.000000e+00
     vertex  5.831749e+00  5.476377e+00  1.000000e+02
     vertex  4.286614e+00  6.754623e+00  1.000000e+02
   endloop
 endfacet
 facet normal -9.921147e-01  1.253332e-01  0.000000e+00
   outer loop
     vertex  8.000000e+00 -1.959435e-15  0.000000e+00
     vertex  7.748665e+00 -1.989519e+00  0.000000e+00
     vertex  8.000000e+00 -1.959435e-15  1.000000e+02
   endloop
 endfacet
 facet normal -9.921147e-01  1.253332e-01  0.000000e+00
   outer loop
     vertex  7.748665e+00 -1.989519e+00  0.000000e+00
     vertex  7.748665e+00 -1.989519e+00  1.000000e+02
     vertex  8.000000e+00 -1.959435e-15  1.000000e+02
   endloop
 endfacet
 facet normal -4.257793e-01 -9.048271e-01  0.000000e+00
   outer loop
     vertex  2.472136e+00  7.608452e+00  0.000000e+00
     vertex  4.286614e+00  6.754623e+00  0.000000e+00
     vertex  2.472136e+00  7.608452e+00  1.000000e+02
   endloop
 endfacet
 facet normal -4.257793e-01 -9.048271e-01  0.000000e+00
   outer loop
     vertex  4.286614e+00  6.754623e+00  0.000000e+00
     vertex  4.286614e+00  6.754623e+00  1.000000e+02
     vertex  2.472136e+00  7.608452e+00  1.000000e+02
   endloop
 endfacet
 facet normal -1.873813e-01 -9.822873e-01  0.000000e+00
   outer loop
     vertex  5.023242e-01  7.984214e+00  0.000000e+00
     vertex  2.472136e+00  7.608452e+00  0.000000e+00
     vertex  5.023242e-01  7.984214e+00  1.000000e+02
   endloop
 endfacet
 facet normal -1.873813e-01 -9.822873e-01  0.000000e+00
   outer loop
     vertex  2.472136e+00  7.608452e+00  0.000000e+00
     vertex  2.472136e+00  7.608452e+00  1.000000e+02
     vertex  5.023242e-01  7.984214e+00  1.000000e+02
   endloop
 endfacet
 facet normal  6.279052e-02 -9.980267e-01  0.000000e+00
   outer loop
     vertex -1.499051e+00  7.858298e+00  0.000000e+00
     vertex  5.023242e-01  7.984214e+00  0.000000e+00
     vertex -1.499051e+00  7.858298e+00  1.000000e+02
   endloop
 endfacet
 facet normal  6.279052e-02 -9.980267e-01  0.000000e+00
   outer loop
     vertex  5.023242e-01  7.984214e+00  0.000000e+00
     vertex  5.023242e-01  7.984214e+00  1.000000e+02
     vertex -1.499051e+00  7.858298e+00  1.000000e+02
   endloop
 endfacet
 facet normal  3.090170e-01 -9.510565e-01  0.000000e+00
   outer loop
     vertex -3.406234e+00  7.238616e+00  0.000000e+00
     vertex -1.499051e+00  7.858298e+00  0.000000e+00
     vertex -3.406234e+00  7.238616e+00  1.000000e+02
   endloop
 endfacet
 facet normal  3.090170e-01 -9.510565e-01  0.000000e+00
   outer loop
     vertex -1.499051e+00  7.858298e+00  0.000000e+00
     vertex -1.499051e+00  7.858298e+00  1.000000e+02
     vertex -3.406234e+00  7.238616e+00  1.000000e+02
   endloop
 endfacet
 facet normal  5.358268e-01 -8.443279e-01  0.000000e+00
   outer loop
     vertex -5.099392e+00  6.164106e+00  0.000000e+00
     vertex -3.406234e+00  7.238616e+00  0.000000e+00
     vertex -5.099392e+00  6.164106e+00  1.000000e+02
   endloop
 endfacet
 facet normal  5.358268e-01 -8.443279e-01  0.000000e+00
   outer loop
     vertex -3.406234e+00  7.238616e+00  0.000000e+00
     vertex -3.406234e+00  7.238616e+00  1.000000e+02
     vertex -5.099392e+00  6.164106e+00  1.000000e+02
   endloop
 endfacet
 facet normal  7.289686e-01 -6.845471e-01  0.000000e+00
   outer loop
     vertex -6.472136e+00  4.702282e+00  0.000000e+00
     vertex -5.099392e+00  6.164106e+00  0.000000e+00
     vertex -6.472136e+00  4.702282e+00  1.000000e+02
   endloop
 endfacet
 facet normal  7.289686e-01 -6.845471e-01  0.000000e+00
   outer loop
     vertex -5.099392e+00  6.164106e+00  0.000000e+00
     vertex -5.099392e+00  6.164106e+00  1.000000e+02
     vertex -6.472136e+00  4.702282e+00  1.000000e+02
   endloop
 endfacet
 facet normal  8.763067e-01 -4.817537e-01  0.000000e+00
   outer loop
     vertex -7.438212e+00  2.944996e+00  0.000000e+00
     vertex -6.472136e+00  4.702282e+00  0.000000e+00
     vertex -7.438212e+00  2.944996e+00  1.000000e+02
   endloop
 endfacet
 facet normal  8.763067e-01 -4.817537e-01  0.000000e+00
   outer loop
     vertex -6.472136e+00  4.702282e+00  0.000000e+00
     vertex -6.472136e+00  4.702282e+00  1.000000e+02
     vertex -7.438212e+00  2.944996e+00  1.000000e+02
   endloop
 endfacet
 facet normal  9.685832e-01 -2.486899e-01  0.000000e+00
   outer loop
     vertex -7.438212e+00  2.944996e+00  0.000000e+00
     vertex -7.438212e+00  2.944996e+00  1.000000e+02
     vertex -7.936918e+00  1.002666e+00  1.000000e+02
   endloop
 endfacet
 facet normal  9.685832e-01 -2.486899e-01  0.000000e+00
   outer loop
     vertex -7.936918e+00  1.002666e+00  0.000000e+00
     vertex -7.438212e+00  2.944996e+00  0.000000e+00
     vertex -7.936918e+00  1.002666e+00  1.000000e+02
   endloop
 endfacet
 facet normal  1.000000e+00 -8.858169e-16  0.000000e+00
   outer loop
     vertex -7.936918e+00  1.002666e+00  0.000000e+00
     vertex -7.936918e+00  1.002666e+00  1.000000e+02
     vertex -7.936918e+00 -1.002666e+00  1.000000e+02
   endloop
 endfacet
 facet normal  1.000000e+00 -8.858169e-16  0.000000e+00
   outer loop
     vertex -7.936918e+00 -1.002666e+00  0.000000e+00
     vertex -7.936918e+00  1.002666e+00  0.000000e+00
     vertex -7.936918e+00 -1.002666e+00  1.000000e+02
   endloop
 endfacet
 facet normal  9.685832e-01  2.486899e-01 -0.000000e+00
   outer loop
     vertex -7.936918e+00 -1.002666e+00  0.000000e+00
     vertex -7.936918e+00 -1.002666e+00  1.000000e+02
     vertex -7.438212e+00 -2.944996e+00  1.000000e+02
   endloop
 endfacet
 facet normal  9.685832e-01  2.486899e-01  0.000000e+00
   outer loop
     vertex -7.438212e+00 -2.944996e+00  0.000000e+00
     vertex -7.936918e+00 -1.002666e+00  0.000000e+00
     vertex -7.438212e+00 -2.944996e+00  1.000000e+02
   endloop
 endfacet
 facet normal  8.763067e-01  4.817537e-01  0.000000e+00
   outer loop
     vertex -6.472136e+00 -4.702282e+00  0.000000e+00
     vertex -7.438212e+00 -2.944996e+00  0.000000e+00
     vertex -6.472136e+00 -4.702282e+00  1.000000e+02
   endloop
 endfacet
 facet normal  8.763067e-01  4.817537e-01 -0.000000e+00
   outer loop
     vertex -7.438212e+00 -2.944996e+00  0.000000e+00
     vertex -7.438212e+00 -2.944996e+00  1.000000e+02
     vertex -6.472136e+00 -4.702282e+00  1.000000e+02
   endloop
 endfacet
 facet normal  7.289686e-01  6.845471e-01  0.000000e+00
   outer loop
     vertex -5.099392e+00 -6.164106e+00  0.000000e+00
     vertex -6.472136e+00 -4.702282e+00  0.000000e+00
     vertex -5.099392e+00 -6.164106e+00  1.000000e+02
   endloop
 endfacet
 facet normal  7.289686e-01  6.845471e-01 -0.000000e+00
   outer loop
     vertex -6.472136e+00 -4.702282e+00  0.000000e+00
     vertex -6.472136e+00 -4.702282e+00  1.000000e+02
     vertex -5.099392e+00 -6.164106e+00  1.000000e+02
   endloop
 endfacet
 facet normal  5.358268e-01  8.443279e-01  0.000000e+00
   outer loop
     vertex -3.406234e+00 -7.238616e+00  0.000000e+00
     vertex -5.099392e+00 -6.164106e+00  0.000000e+00
     vertex -3.406234e+00 -7.238616e+00  1.000000e+02
   endloop
 endfacet
 facet normal  5.358268e-01  8.443279e-01 -0.000000e+00
   outer loop
     vertex -5.099392e+00 -6.164106e+00  0.000000e+00
     vertex -5.099392e+00 -6.164106e+00  1.000000e+02
     vertex -3.406234e+00 -7.238616e+00  1.000000e+02
   endloop
 endfacet
 facet normal  3.090170e-01  9.510565e-01  0.000000e+00
   outer loop
     vertex -1.499051e+00 -7.858298e+00  0.000000e+00
     vertex -3.406234e+00 -7.238616e+00  0.000000e+00
     vertex -1.499051e+00 -7.858298e+00  1.000000e+02
   endloop
 endfacet
 facet normal  3.090170e-01  9.510565e-01 -0.000000e+00
   outer loop
     vertex -3.406234e+00 -7.238616e+00  0.000000e+00
     vertex -3.406234e+00 -7.238616e+00  1.000000e+02
     vertex -1.499051e+00 -7.858298e+00  1.000000e+02
   endloop
 endfacet
endsolid
