solid
 facet normal -0.000000e+00  1.000000e+00 -0.000000e+00
   outer loop
     vertex  1.369094e-01  2.000000e+00  2.145794e+00
     vertex -4.898587e-17  2.000000e+00  2.200000e+00
     vertex  4.973798e-02  2.000000e+00  2.193717e+00
   endloop
 endfacet
 facet normal -0.000000e+00  1.000000e+00 -0.000000e+00
   outer loop
     vertex  1.369094e-01  2.000000e+00  2.145794e+00
     vertex  4.973798e-02  2.000000e+00  2.193717e+00
     vertex  9.635073e-02  2.000000e+00  2.175261e+00
   endloop
 endfacet
 facet normal  0.000000e+00  1.000000e+00  0.000000e+00
   outer loop
     vertex  1.369094e-01  2.000000e+00  2.145794e+00
     vertex  1.688656e-01  2.000000e+00  2.107165e+00
     vertex  1.902113e-01  2.000000e+00  2.061803e+00
   endloop
 endfacet
 facet normal  0.000000e+00  1.000000e+00  0.000000e+00
   outer loop
     vertex  1.369094e-01  2.000000e+00  2.145794e+00
     vertex  1.902113e-01  2.000000e+00  2.061803e+00
     vertex  1.996053e-01  2.000000e+00  2.012558e+00
   endloop
 endfacet
 facet normal  0.000000e+00  1.000000e+00  0.000000e+00
   outer loop
     vertex  1.369094e-01  2.000000e+00  2.145794e+00
     vertex  1.996053e-01  2.000000e+00  2.012558e+00
     vertex  1.964575e-01  2.000000e+00  1.962524e+00
   endloop
 endfacet
 facet normal  0.000000e+00  1.000000e+00  0.000000e+00
   outer loop
     vertex  1.369094e-01  2.000000e+00  2.145794e+00
     vertex  1.964575e-01  2.000000e+00  1.962524e+00
     vertex  1.809654e-01  2.000000e+00  1.914844e+00
   endloop
 endfacet
 facet normal  0.000000e+00  1.000000e+00  0.000000e+00
   outer loop
     vertex  1.369094e-01  2.000000e+00  2.145794e+00
     vertex  1.809654e-01  2.000000e+00  1.914844e+00
     vertex  1.541026e-01  2.000000e+00  1.872515e+00
   endloop
 endfacet
 facet normal  0.000000e+00  1.000000e+00  0.000000e+00
   outer loop
     vertex  1.369094e-01  2.000000e+00  2.145794e+00
     vertex  1.541026e-01  2.000000e+00  1.872515e+00
     vertex  1.175571e-01  2.000000e+00  1.838197e+00
   endloop
 endfacet
 facet normal  0.000000e+00  1.000000e+00  0.000000e+00
   outer loop
     vertex  1.369094e-01  2.000000e+00  2.145794e+00
     vertex  1.175571e-01  2.000000e+00  1.838197e+00
     vertex  7.362491e-02  2.000000e+00  1.814045e+00
   endloop
 endfacet
 facet normal  0.000000e+00  1.000000e+00  0.000000e+00
   outer loop
     vertex  1.369094e-01  2.000000e+00  2.145794e+00
     vertex  7.362491e-02  2.000000e+00  1.814045e+00
     vertex  2.506665e-02  2.000000e+00  1.801577e+00
   endloop
 endfacet
 facet normal  0.000000e+00  1.000000e+00  0.000000e+00
   outer loop
     vertex  1.369094e-01  2.000000e+00  2.145794e+00
     vertex  2.506665e-02  2.000000e+00  1.801577e+00
     vertex -2.506665e-02  2.000000e+00  1.801577e+00
   endloop
 endfacet
 facet normal  0.000000e+00  1.000000e+00  0.000000e+00
   outer loop
     vertex  1.369094e-01  2.000000e+00  2.145794e+00
     vertex -2.506665e-02  2.000000e+00  1.801577e+00
     vertex -7.362491e-02  2.000000e+00  1.814045e+00
   endloop
 endfacet
 facet normal  0.000000e+00  1.000000e+00  0.000000e+00
   outer loop
     vertex  1.369094e-01  2.000000e+00  2.145794e+00
     vertex -7.362491e-02  2.000000e+00  1.814045e+00
     vertex -1.175571e-01  2.000000e+00  1.838197e+00
   endloop
 endfacet
 facet normal  0.000000e+00  1.000000e+00  0.000000e+00
   outer loop
     vertex  1.369094e-01  2.000000e+00  2.145794e+00
     vertex -1.175571e-01  2.000000e+00  1.838197e+00
     vertex -1.541026e-01  2.000000e+00  1.872515e+00
   endloop
 endfacet
 facet normal  0.000000e+00  1.000000e+00  0.000000e+00
   outer loop
     vertex  1.369094e-01  2.000000e+00  2.145794e+00
     vertex -1.541026e-01  2.000000e+00  1.872515e+00
     vertex -1.809654e-01  2.000000e+00  1.914844e+00
   endloop
 endfacet
 facet normal  0.000000e+00  1.000000e+00  0.000000e+00
   outer loop
     vertex  1.369094e-01  2.000000e+00  2.145794e+00
     vertex -1.809654e-01  2.000000e+00  1.914844e+00
     vertex -1.964575e-01  2.000000e+00  1.962524e+00
   endloop
 endfacet
 facet normal  0.000000e+00  1.000000e+00  0.000000e+00
   outer loop
     vertex  1.369094e-01  2.000000e+00  2.145794e+00
     vertex -1.964575e-01  2.000000e+00  1.962524e+00
     vertex -1.996053e-01  2.000000e+00  2.012558e+00
   endloop
 endfacet
 facet normal  0.000000e+00  1.000000e+00 -0.000000e+00
   outer loop
     vertex  1.369094e-01  2.000000e+00  2.145794e+00
     vertex -1.996053e-01  2.000000e+00  2.012558e+00
     vertex -1.902113e-01  2.000000e+00  2.061803e+00
   endloop
 endfacet
 facet normal  0.000000e+00  1.000000e+00 -0.000000e+00
   outer loop
     vertex  1.369094e-01  2.000000e+00  2.145794e+00
     vertex -1.902113e-01  2.000000e+00  2.061803e+00
     vertex -1.688656e-01  2.000000e+00  2.107165e+00
   endloop
 endfacet
 facet normal  0.000000e+00  1.000000e+00 -0.000000e+00
   outer loop
     vertex  1.369094e-01  2.000000e+00  2.145794e+00
     vertex -1.688656e-01  2.000000e+00  2.107165e+00
     vertex -1.369094e-01  2.000000e+00  2.145794e+00
   endloop
 endfacet
 facet normal  0.000000e+00  1.000000e+00 -0.000000e+00
   outer loop
     vertex  1.369094e-01  2.000000e+00  2.145794e+00
     vertex -1.369094e-01  2.000000e+00  2.145794e+00
     vertex -9.635073e-02  2.000000e+00  2.175261e+00
   endloop
 endfacet
 facet normal  0.000000e+00  1.000000e+00 -0.000000e+00
   outer loop
     vertex  1.369094e-01  2.000000e+00  2.145794e+00
     vertex -9.635073e-02  2.000000e+00  2.175261e+00
     vertex -4.973798e-02  2.000000e+00  2.193717e+00
   endloop
 endfacet
 facet normal  0.000000e+00  1.000000e+00 -0.000000e+00
   outer loop
     vertex  1.369094e-01  2.000000e+00  2.145794e+00
     vertex -4.973798e-02  2.000000e+00  2.193717e+00
     vertex -4.898587e-17  2.000000e+00  2.200000e+00
   endloop
 endfacet
 facet normal -5.056264e-01 -1.715927e-04 -8.627525e-01
   outer loop
     vertex -1.175571e-01  2.000000e+00  1.838197e+00
     vertex -8.230287e-02  1.075503e+00  1.817719e+00
     vertex -1.188242e-01  1.066637e+00  1.839125e+00
   endloop
 endfacet
 facet normal -6.759500e-01  1.847625e-04 -7.369475e-01
   outer loop
     vertex -1.175571e-01  2.000000e+00  1.838197e+00
     vertex -1.188242e-01  1.066637e+00  1.839125e+00
     vertex -1.500222e-01  1.054785e+00  1.867738e+00
   endloop
 endfacet
 facet normal -4.817534e-01  1.038972e-03 -8.763062e-01
   outer loop
     vertex -1.175571e-01  2.000000e+00  1.838197e+00
     vertex -7.362491e-02  2.000000e+00  1.814045e+00
     vertex -8.230287e-02  1.075503e+00  1.817719e+00
   endloop
 endfacet
 facet normal -8.157683e-01 -5.982157e-04 -5.783785e-01
   outer loop
     vertex -1.541026e-01  2.000000e+00  1.872515e+00
     vertex -1.500222e-01  1.054785e+00  1.867738e+00
     vertex -1.744992e-01  1.040479e+00  1.902276e+00
   endloop
 endfacet
 facet normal  1.305262e-01 -2.624961e-04  9.914448e-01
   outer loop
     vertex  4.973798e-02  2.000000e+00  2.193717e+00
     vertex -4.898587e-17  1.000000e+00  2.200000e+00
     vertex  5.176381e-02  1.000000e+00  2.193185e+00
   endloop
 endfacet
 facet normal -6.845469e-01  7.294133e-04 -7.289684e-01
   outer loop
     vertex -1.541026e-01  2.000000e+00  1.872515e+00
     vertex -1.175571e-01  2.000000e+00  1.838197e+00
     vertex -1.500222e-01  1.054785e+00  1.867738e+00
   endloop
 endfacet
 facet normal  1.253332e-01  0.000000e+00  9.921147e-01
   outer loop
     vertex  4.973798e-02  2.000000e+00  2.193717e+00
     vertex -4.898587e-17  2.000000e+00  2.200000e+00
     vertex -4.898587e-17  1.000000e+00  2.200000e+00
   endloop
 endfacet
 facet normal  3.826834e-01 -5.032188e-04  9.238794e-01
   outer loop
     vertex  9.635073e-02  2.000000e+00  2.175261e+00
     vertex  5.176381e-02  1.000000e+00  2.193185e+00
     vertex  1.000000e-01  1.000000e+00  2.173205e+00
   endloop
 endfacet
 facet normal  3.681245e-01  2.516128e-04  9.297765e-01
   outer loop
     vertex  9.635073e-02  2.000000e+00  2.175261e+00
     vertex  4.973798e-02  2.000000e+00  2.193717e+00
     vertex  5.176381e-02  1.000000e+00  2.193185e+00
   endloop
 endfacet
 facet normal -9.191515e-01 -1.034581e-03 -3.939028e-01
   outer loop
     vertex -1.809654e-01  2.000000e+00  1.914844e+00
     vertex -1.744992e-01  1.040479e+00  1.902276e+00
     vertex -1.911586e-01  1.024359e+00  1.941192e+00
   endloop
 endfacet
 facet normal -8.443272e-01  1.328661e-03 -5.358263e-01
   outer loop
     vertex -1.809654e-01  2.000000e+00  1.914844e+00
     vertex -1.541026e-01  2.000000e+00  1.872515e+00
     vertex -1.744992e-01  1.040479e+00  1.902276e+00
   endloop
 endfacet
 facet normal  6.087613e-01 -7.221415e-04  7.933531e-01
   outer loop
     vertex  1.369094e-01  2.000000e+00  2.145794e+00
     vertex  1.000000e-01  1.000000e+00  2.173205e+00
     vertex  1.414214e-01  1.000000e+00  2.141421e+00
   endloop
 endfacet
 facet normal  5.877852e-01  4.814388e-04  8.090169e-01
   outer loop
     vertex  1.369094e-01  2.000000e+00  2.145794e+00
     vertex  9.635073e-02  2.000000e+00  2.175261e+00
     vertex  1.000000e-01  1.000000e+00  2.173205e+00
   endloop
 endfacet
 facet normal -9.750132e-01 -4.383369e-04 -2.221466e-01
   outer loop
     vertex -1.964575e-01  2.000000e+00  1.962524e+00
     vertex -1.911586e-01  1.024359e+00  1.941192e+00
     vertex -1.977773e-01  1.012316e+00  1.970266e+00
   endloop
 endfacet
 facet normal -9.972405e-01  7.507484e-04 -7.423435e-02
   outer loop
     vertex -1.964575e-01  2.000000e+00  1.962524e+00
     vertex -1.977773e-01  1.012316e+00  1.970266e+00
     vertex -2.000000e-01  1.000000e+00  2.000000e+00
   endloop
 endfacet
 facet normal  7.933530e-01 -9.192404e-04  6.087612e-01
   outer loop
     vertex  1.688656e-01  2.000000e+00  2.107165e+00
     vertex  1.414214e-01  1.000000e+00  2.141421e+00
     vertex  1.732051e-01  1.000000e+00  2.100000e+00
   endloop
 endfacet
 facet normal -9.510553e-01  1.591143e-03 -3.090166e-01
   outer loop
     vertex -1.964575e-01  2.000000e+00  1.962524e+00
     vertex -1.809654e-01  2.000000e+00  1.914844e+00
     vertex -1.911586e-01  1.024359e+00  1.941192e+00
   endloop
 endfacet
 facet normal  7.705131e-01  6.894525e-04  6.374238e-01
   outer loop
     vertex  1.688656e-01  2.000000e+00  2.107165e+00
     vertex  1.369094e-01  2.000000e+00  2.145794e+00
     vertex  1.414214e-01  1.000000e+00  2.141421e+00
   endloop
 endfacet
 facet normal -9.914441e-01 -1.247883e-03  1.305261e-01
   outer loop
     vertex -1.996053e-01  2.000000e+00  2.012558e+00
     vertex -2.000000e-01  1.000000e+00  2.000000e+00
     vertex -1.931852e-01  1.000000e+00  2.051764e+00
   endloop
 endfacet
 facet normal  9.238790e-01 -1.094494e-03  3.826832e-01
   outer loop
     vertex  1.902113e-01  2.000000e+00  2.061803e+00
     vertex  1.732051e-01  1.000000e+00  2.100000e+00
     vertex  1.931852e-01  1.000000e+00  2.051764e+00
   endloop
 endfacet
 facet normal -9.980260e-01  1.182405e-03 -6.279048e-02
   outer loop
     vertex -1.996053e-01  2.000000e+00  2.012558e+00
     vertex -1.964575e-01  2.000000e+00  1.962524e+00
     vertex -2.000000e-01  1.000000e+00  2.000000e+00
   endloop
 endfacet
 facet normal  9.048267e-01  8.756313e-04  4.257791e-01
   outer loop
     vertex  1.902113e-01  2.000000e+00  2.061803e+00
     vertex  1.688656e-01  2.000000e+00  2.107165e+00
     vertex  1.732051e-01  1.000000e+00  2.100000e+00
   endloop
 endfacet
 facet normal -9.238790e-01 -1.094494e-03  3.826832e-01
   outer loop
     vertex -1.902113e-01  2.000000e+00  2.061803e+00
     vertex -1.931852e-01  1.000000e+00  2.051764e+00
     vertex -1.732051e-01  1.000000e+00  2.100000e+00
   endloop
 endfacet
 facet normal  9.914441e-01 -1.247883e-03  1.305261e-01
   outer loop
     vertex  1.996053e-01  2.000000e+00  2.012558e+00
     vertex  1.931852e-01  1.000000e+00  2.051764e+00
     vertex  2.000000e-01  1.000000e+00  2.000000e+00
   endloop
 endfacet
 facet normal -9.822867e-01  1.039955e-03  1.873812e-01
   outer loop
     vertex -1.902113e-01  2.000000e+00  2.061803e+00
     vertex -1.996053e-01  2.000000e+00  2.012558e+00
     vertex -1.931852e-01  1.000000e+00  2.051764e+00
   endloop
 endfacet
 facet normal  9.822867e-01  1.039955e-03  1.873812e-01
   outer loop
     vertex  1.996053e-01  2.000000e+00  2.012558e+00
     vertex  1.902113e-01  2.000000e+00  2.061803e+00
     vertex  1.931852e-01  1.000000e+00  2.051764e+00
   endloop
 endfacet
 facet normal  9.913686e-01 -1.401033e-03 -1.310965e-01
   outer loop
     vertex  1.964575e-01  2.000000e+00  1.962524e+00
     vertex  2.000000e-01  1.000000e+00  2.000000e+00
     vertex  1.931852e-01  1.021441e+00  1.948236e+00
   endloop
 endfacet
 facet normal -7.933530e-01 -9.192404e-04  6.087612e-01
   outer loop
     vertex -1.688656e-01  2.000000e+00  2.107165e+00
     vertex -1.732051e-01  1.000000e+00  2.100000e+00
     vertex -1.414214e-01  1.000000e+00  2.141421e+00
   endloop
 endfacet
 facet normal  9.980260e-01  1.182405e-03 -6.279048e-02
   outer loop
     vertex  1.964575e-01  2.000000e+00  1.962524e+00
     vertex  1.996053e-01  2.000000e+00  2.012558e+00
     vertex  2.000000e-01  1.000000e+00  2.000000e+00
   endloop
 endfacet
 facet normal -9.048267e-01  8.756313e-04  4.257791e-01
   outer loop
     vertex -1.688656e-01  2.000000e+00  2.107165e+00
     vertex -1.902113e-01  2.000000e+00  2.061803e+00
     vertex -1.732051e-01  1.000000e+00  2.100000e+00
   endloop
 endfacet
 facet normal  9.236523e-01 -1.543065e-03 -3.832285e-01
   outer loop
     vertex  1.809654e-01  2.000000e+00  1.914844e+00
     vertex  1.931852e-01  1.021441e+00  1.948236e+00
     vertex  1.732051e-01  1.041421e+00  1.900000e+00
   endloop
 endfacet
 facet normal -6.087613e-01 -7.221415e-04  7.933531e-01
   outer loop
     vertex -1.369094e-01  2.000000e+00  2.145794e+00
     vertex -1.414214e-01  1.000000e+00  2.141421e+00
     vertex -1.000000e-01  1.000000e+00  2.173205e+00
   endloop
 endfacet
 facet normal  9.510557e-01  1.331515e-03 -3.090167e-01
   outer loop
     vertex  1.809654e-01  2.000000e+00  1.914844e+00
     vertex  1.964575e-01  2.000000e+00  1.962524e+00
     vertex  1.931852e-01  1.021441e+00  1.948236e+00
   endloop
 endfacet
 facet normal -7.705131e-01  6.894525e-04  6.374238e-01
   outer loop
     vertex -1.369094e-01  2.000000e+00  2.145794e+00
     vertex -1.688656e-01  2.000000e+00  2.107165e+00
     vertex -1.414214e-01  1.000000e+00  2.141421e+00
   endloop
 endfacet
 facet normal -3.826834e-01 -5.032188e-04  9.238794e-01
   outer loop
     vertex -9.635073e-02  2.000000e+00  2.175261e+00
     vertex -1.000000e-01  1.000000e+00  2.173205e+00
     vertex -5.176381e-02  1.000000e+00  2.193185e+00
   endloop
 endfacet
 facet normal -5.877852e-01  4.814388e-04  8.090169e-01
   outer loop
     vertex -9.635073e-02  2.000000e+00  2.175261e+00
     vertex -1.369094e-01  2.000000e+00  2.145794e+00
     vertex -1.000000e-01  1.000000e+00  2.173205e+00
   endloop
 endfacet
 facet normal  8.010145e-01 -1.202070e-03 -5.986438e-01
   outer loop
     vertex  1.541026e-01  2.000000e+00  1.872515e+00
     vertex  1.732051e-01  1.041421e+00  1.900000e+00
     vertex  1.450749e-01  1.057025e+00  1.862329e+00
   endloop
 endfacet
 facet normal  8.443270e-01  1.462190e-03 -5.358262e-01
   outer loop
     vertex  1.541026e-01  2.000000e+00  1.872515e+00
     vertex  1.809654e-01  2.000000e+00  1.914844e+00
     vertex  1.732051e-01  1.041421e+00  1.900000e+00
   endloop
 endfacet
 facet normal -1.305262e-01 -2.624961e-04  9.914448e-01
   outer loop
     vertex -4.973798e-02  2.000000e+00  2.193717e+00
     vertex -5.176381e-02  1.000000e+00  2.193185e+00
     vertex -4.898587e-17  1.000000e+00  2.200000e+00
   endloop
 endfacet
 facet normal -3.681245e-01  2.516128e-04  9.297765e-01
   outer loop
     vertex -4.973798e-02  2.000000e+00  2.193717e+00
     vertex -9.635073e-02  2.000000e+00  2.175261e+00
     vertex -5.176381e-02  1.000000e+00  2.193185e+00
   endloop
 endfacet
 facet normal -1.253332e-01  0.000000e+00  9.921147e-01
   outer loop
     vertex -4.898587e-17  2.000000e+00  2.200000e+00
     vertex -4.973798e-02  2.000000e+00  2.193717e+00
     vertex -4.898587e-17  1.000000e+00  2.200000e+00
   endloop
 endfacet
 facet normal  6.483365e-01 -5.647495e-04 -7.613537e-01
   outer loop
     vertex  1.175571e-01  2.000000e+00  1.838197e+00
     vertex  1.450749e-01  1.057025e+00  1.862329e+00
     vertex  1.128493e-01  1.068395e+00  1.834879e+00
   endloop
 endfacet
 facet normal  6.845465e-01  1.320737e-03 -7.289680e-01
   outer loop
     vertex  1.175571e-01  2.000000e+00  1.838197e+00
     vertex  1.541026e-01  2.000000e+00  1.872515e+00
     vertex  1.450749e-01  1.057025e+00  1.862329e+00
   endloop
 endfacet
 facet normal  4.817536e-01  6.864449e-04 -8.763065e-01
   outer loop
     vertex  7.362491e-02  2.000000e+00  1.814045e+00
     vertex  1.175571e-01  2.000000e+00  1.838197e+00
     vertex  1.128493e-01  1.068395e+00  1.834879e+00
   endloop
 endfacet
 facet normal  4.737475e-01  2.519810e-04 -8.806607e-01
   outer loop
     vertex  7.362491e-02  2.000000e+00  1.814045e+00
     vertex  1.128493e-01  1.068395e+00  1.834879e+00
     vertex  7.556816e-02  1.076702e+00  1.814826e+00
   endloop
 endfacet
 facet normal  2.865009e-01 -2.076155e-04 -9.580799e-01
   outer loop
     vertex  7.362491e-02  2.000000e+00  1.814045e+00
     vertex  7.556816e-02  1.076702e+00  1.814826e+00
     vertex  3.850439e-02  1.081293e+00  1.803741e+00
   endloop
 endfacet
 facet normal  2.486897e-01  1.355625e-03 -9.685823e-01
   outer loop
     vertex  2.506665e-02  2.000000e+00  1.801577e+00
     vertex  7.362491e-02  2.000000e+00  1.814045e+00
     vertex  3.850439e-02  1.081293e+00  1.803741e+00
   endloop
 endfacet
 facet normal  9.667721e-02 -9.308127e-04 -9.953154e-01
   outer loop
     vertex  2.506665e-02  2.000000e+00  1.801577e+00
     vertex  3.850439e-02  1.081293e+00  1.803741e+00
     vertex  0.000000e+00  1.082843e+00  1.800000e+00
   endloop
 endfacet
 facet normal  0.000000e+00  1.719506e-03 -9.999985e-01
   outer loop
     vertex -2.506665e-02  2.000000e+00  1.801577e+00
     vertex  2.506665e-02  2.000000e+00  1.801577e+00
     vertex  0.000000e+00  1.082843e+00  1.800000e+00
   endloop
 endfacet
 facet normal -1.057786e-01 -1.181155e-03 -9.943890e-01
   outer loop
     vertex -2.506665e-02  2.000000e+00  1.801577e+00
     vertex  0.000000e+00  1.082843e+00  1.800000e+00
     vertex -4.209435e-02  1.080987e+00  1.804480e+00
   endloop
 endfacet
 facet normal -3.126458e-01 -8.407833e-04 -9.498694e-01
   outer loop
     vertex -7.362491e-02  2.000000e+00  1.814045e+00
     vertex -4.209435e-02  1.080987e+00  1.804480e+00
     vertex -8.230287e-02  1.075503e+00  1.817719e+00
   endloop
 endfacet
 facet normal -2.486896e-01  1.548254e-03 -9.685820e-01
   outer loop
     vertex -7.362491e-02  2.000000e+00  1.814045e+00
     vertex -2.506665e-02  2.000000e+00  1.801577e+00
     vertex -4.209435e-02  1.080987e+00  1.804480e+00
   endloop
 endfacet
 facet normal -3.317822e-01 -5.746636e-01  7.481192e-01
   outer loop
     vertex -4.020688e-02  8.895325e-01  2.161803e+00
     vertex -7.556422e-02  9.099461e-01  2.161803e+00
     vertex -5.176381e-02  8.633975e-01  2.136603e+00
   endloop
 endfacet
 facet normal -3.879714e-01 -2.239954e-01  8.940382e-01
   outer loop
     vertex -4.734415e-02  9.602735e-01  2.190211e+00
     vertex -5.807620e-02  9.788620e-01  2.190211e+00
     vertex -1.018074e-01  9.412215e-01  2.161803e+00
   endloop
 endfacet
 facet normal -1.375139e-01 -7.939366e-02  9.873128e-01
   outer loop
     vertex -4.734415e-02  9.602735e-01  2.190211e+00
     vertex -4.898587e-17  1.000000e+00  2.200000e+00
     vertex -5.807620e-02  9.788620e-01  2.190211e+00
   endloop
 endfacet
 facet normal -3.568204e-01 -2.994078e-01  8.848922e-01
   outer loop
     vertex -4.734415e-02  9.602735e-01  2.190211e+00
     vertex -1.018074e-01  9.412215e-01  2.161803e+00
     vertex -7.556422e-02  9.099461e-01  2.161803e+00
   endloop
 endfacet
 facet normal -1.137717e-01 -6.452311e-01  7.554686e-01
   outer loop
     vertex -8.627661e-11  8.824429e-01  2.161803e+00
     vertex -4.020688e-02  8.895325e-01  2.161803e+00
     vertex  2.284771e-15  8.585786e-01  2.141421e+00
   endloop
 endfacet
 facet normal -9.899990e-01 -5.398687e-02  1.303358e-01
   outer loop
     vertex -1.931852e-01  9.633975e-01  2.036603e+00
     vertex -1.931852e-01  1.000000e+00  2.051764e+00
     vertex -2.000000e-01  1.000000e+00  2.000000e+00
   endloop
 endfacet
 facet normal -1.020665e-01 -1.216381e-01  9.873128e-01
   outer loop
     vertex -3.090170e-02  9.464767e-01  2.190211e+00
     vertex -4.898587e-17  1.000000e+00  2.200000e+00
     vertex -4.734415e-02  9.602735e-01  2.190211e+00
   endloop
 endfacet
 facet normal -2.879629e-01 -3.431808e-01  8.940382e-01
   outer loop
     vertex -3.090170e-02  9.464767e-01  2.190211e+00
     vertex -4.734415e-02  9.602735e-01  2.190211e+00
     vertex -7.556422e-02  9.099461e-01  2.161803e+00
   endloop
 endfacet
 facet normal -2.328980e-01 -4.033911e-01  8.848922e-01
   outer loop
     vertex -3.090170e-02  9.464767e-01  2.190211e+00
     vertex -7.556422e-02  9.099461e-01  2.161803e+00
     vertex -4.020688e-02  8.895325e-01  2.161803e+00
   endloop
 endfacet
 facet normal  9.228306e-01 -4.763831e-02  3.822490e-01
   outer loop
     vertex  1.873216e-01  9.669702e-01  2.061803e+00
     vertex  1.931852e-01  1.000000e+00  2.051764e+00
     vertex  1.732051e-01  1.000000e+00  2.100000e+00
   endloop
 endfacet
 facet normal  9.236682e-01 -2.856605e-01  2.554118e-01
   outer loop
     vertex  1.873216e-01  9.669702e-01  2.061803e+00
     vertex  1.732051e-01  9.292893e-01  2.070711e+00
     vertex  1.931852e-01  9.633975e-01  2.036603e+00
   endloop
 endfacet
 facet normal  9.660205e-01 -9.891039e-02  2.387908e-01
   outer loop
     vertex  1.873216e-01  9.669702e-01  2.061803e+00
     vertex  1.931852e-01  9.633975e-01  2.036603e+00
     vertex  1.931852e-01  1.000000e+00  2.051764e+00
   endloop
 endfacet
 facet normal  8.486577e-01 -2.024175e-01  4.886792e-01
   outer loop
     vertex  1.873216e-01  9.669702e-01  2.061803e+00
     vertex  1.732051e-01  1.000000e+00  2.100000e+00
     vertex  1.732051e-01  9.292893e-01  2.070711e+00
   endloop
 endfacet
 facet normal  6.018222e-01 -6.610520e-01  4.481298e-01
   outer loop
     vertex  1.239486e-01  8.959948e-01  2.117557e+00
     vertex  1.000000e-01  8.775255e-01  2.122474e+00
     vertex  1.414214e-01  9.000000e-01  2.100000e+00
   endloop
 endfacet
 facet normal  1.302950e-01 -6.577482e-01  7.418831e-01
   outer loop
     vertex  4.020688e-02  8.895325e-01  2.161803e+00
     vertex  2.284771e-15  8.585786e-01  2.141421e+00
     vertex  5.176381e-02  8.633975e-01  2.136603e+00
   endloop
 endfacet
 facet normal  1.137717e-01 -6.452311e-01  7.554686e-01
   outer loop
     vertex  4.020688e-02  8.895325e-01  2.161803e+00
     vertex -8.627661e-11  8.824429e-01  2.161803e+00
     vertex  2.284771e-15  8.585786e-01  2.141421e+00
   endloop
 endfacet
 facet normal -8.088461e-02 -4.587194e-01  8.848922e-01
   outer loop
     vertex -1.073205e-02  9.391355e-01  2.190211e+00
     vertex -4.020688e-02  8.895325e-01  2.161803e+00
     vertex -8.627661e-11  8.824429e-01  2.161803e+00
   endloop
 endfacet
 facet normal -1.532219e-01 -4.209736e-01  8.940382e-01
   outer loop
     vertex -1.073205e-02  9.391355e-01  2.190211e+00
     vertex -3.090170e-02  9.464767e-01  2.190211e+00
     vertex -4.020688e-02  8.895325e-01  2.161803e+00
   endloop
 endfacet
 facet normal -5.430846e-02 -1.492113e-01  9.873128e-01
   outer loop
     vertex -1.073205e-02  9.391355e-01  2.190211e+00
     vertex -4.898587e-17  1.000000e+00  2.200000e+00
     vertex -3.090170e-02  9.464767e-01  2.190211e+00
   endloop
 endfacet
 facet normal  7.885787e-01 -1.095463e-01  6.050977e-01
   outer loop
     vertex  1.520455e-01  9.446600e-01  2.117557e+00
     vertex  1.732051e-01  1.000000e+00  2.100000e+00
     vertex  1.414214e-01  1.000000e+00  2.141421e+00
   endloop
 endfacet
 facet normal  7.912132e-01 -3.773942e-01  4.812020e-01
   outer loop
     vertex  1.520455e-01  9.446600e-01  2.117557e+00
     vertex  1.414214e-01  9.000000e-01  2.100000e+00
     vertex  1.732051e-01  9.292893e-01  2.070711e+00
   endloop
 endfacet
 facet normal  8.703490e-01 -1.884469e-01  4.549510e-01
   outer loop
     vertex  1.520455e-01  9.446600e-01  2.117557e+00
     vertex  1.732051e-01  9.292893e-01  2.070711e+00
     vertex  1.732051e-01  1.000000e+00  2.100000e+00
   endloop
 endfacet
 facet normal  6.935504e-01 -4.004215e-01  5.988742e-01
   outer loop
     vertex  1.520455e-01  9.446600e-01  2.117557e+00
     vertex  1.239486e-01  8.959948e-01  2.117557e+00
     vertex  1.414214e-01  9.000000e-01  2.100000e+00
   endloop
 endfacet
 facet normal  3.809552e-01 -5.832057e-01  7.174568e-01
   outer loop
     vertex  7.556422e-02  9.099461e-01  2.161803e+00
     vertex  5.176381e-02  8.633975e-01  2.136603e+00
     vertex  1.000000e-01  8.775255e-01  2.122474e+00
   endloop
 endfacet
 facet normal  3.317822e-01 -5.746636e-01  7.481192e-01
   outer loop
     vertex  7.556422e-02  9.099461e-01  2.161803e+00
     vertex  4.020688e-02  8.895325e-01  2.161803e+00
     vertex  5.176381e-02  8.633975e-01  2.136603e+00
   endloop
 endfacet
 facet normal  5.142375e-01 -4.770303e-01  7.127425e-01
   outer loop
     vertex  7.556422e-02  9.099461e-01  2.161803e+00
     vertex  1.000000e-01  8.775255e-01  2.122474e+00
     vertex  1.239486e-01  8.959948e-01  2.117557e+00
   endloop
 endfacet
 facet normal  0.000000e+00  0.000000e+00  0.000000e+00
   outer loop
     vertex  1.073205e-02  9.391355e-01  2.190211e+00
     vertex -4.898587e-17  1.000000e+00  2.200000e+00
     vertex -4.898587e-17  1.000000e+00  2.200000e+00
   endloop
 endfacet
 facet normal -1.165365e-10 -1.587873e-01  9.873128e-01
   outer loop
     vertex  1.073205e-02  9.391355e-01  2.190211e+00
     vertex -4.898587e-17  1.000000e+00  2.200000e+00
     vertex -1.073205e-02  9.391355e-01  2.190211e+00
   endloop
 endfacet
 facet normal  8.088461e-02 -4.587194e-01  8.848922e-01
   outer loop
     vertex  1.073205e-02  9.391355e-01  2.190211e+00
     vertex -8.627661e-11  8.824429e-01  2.161803e+00
     vertex  4.020688e-02  8.895325e-01  2.161803e+00
   endloop
 endfacet
 facet normal -3.287876e-10 -4.479907e-01  8.940382e-01
   outer loop
     vertex  1.073205e-02  9.391355e-01  2.190211e+00
     vertex -1.073205e-02  9.391355e-01  2.190211e+00
     vertex -8.627661e-11  8.824429e-01  2.161803e+00
   endloop
 endfacet
 facet normal  6.296121e-01 -3.635067e-01  6.866233e-01
   outer loop
     vertex  1.018074e-01  9.412215e-01  2.161803e+00
     vertex  1.239486e-01  8.959948e-01  2.117557e+00
     vertex  1.520455e-01  9.446600e-01  2.117557e+00
   endloop
 endfacet
 facet normal  5.308556e-01 -4.454407e-01  7.209542e-01
   outer loop
     vertex  1.018074e-01  9.412215e-01  2.161803e+00
     vertex  7.556422e-02  9.099461e-01  2.161803e+00
     vertex  1.239486e-01  8.959948e-01  2.117557e+00
   endloop
 endfacet
 facet normal  1.532219e-01 -4.209736e-01  8.940382e-01
   outer loop
     vertex  3.090170e-02  9.464767e-01  2.190211e+00
     vertex  1.073205e-02  9.391355e-01  2.190211e+00
     vertex  4.020688e-02  8.895325e-01  2.161803e+00
   endloop
 endfacet
 facet normal  5.430846e-02 -1.492113e-01  9.873128e-01
   outer loop
     vertex  3.090170e-02  9.464767e-01  2.190211e+00
     vertex -4.898587e-17  1.000000e+00  2.200000e+00
     vertex  1.073205e-02  9.391355e-01  2.190211e+00
   endloop
 endfacet
 facet normal  2.328980e-01 -4.033911e-01  8.848922e-01
   outer loop
     vertex  3.090170e-02  9.464767e-01  2.190211e+00
     vertex  4.020688e-02  8.895325e-01  2.161803e+00
     vertex  7.556422e-02  9.099461e-01  2.161803e+00
   endloop
 endfacet
 facet normal  6.511907e-01 -2.370140e-01  7.209542e-01
   outer loop
     vertex  1.157711e-01  9.795864e-01  2.161803e+00
     vertex  1.018074e-01  9.412215e-01  2.161803e+00
     vertex  1.520455e-01  9.446600e-01  2.117557e+00
   endloop
 endfacet
 facet normal  6.085363e-01  2.719106e-02  7.930600e-01
   outer loop
     vertex  1.157711e-01  9.795864e-01  2.161803e+00
     vertex  1.414214e-01  1.000000e+00  2.141421e+00
     vertex  1.000000e-01  1.000000e+00  2.173205e+00
   endloop
 endfacet
 facet normal  6.922953e-01 -1.695633e-01  7.014097e-01
   outer loop
     vertex  1.157711e-01  9.795864e-01  2.161803e+00
     vertex  1.520455e-01  9.446600e-01  2.117557e+00
     vertex  1.414214e-01  1.000000e+00  2.141421e+00
   endloop
 endfacet
 facet normal  3.568204e-01 -2.994078e-01  8.848922e-01
   outer loop
     vertex  4.734415e-02  9.602735e-01  2.190211e+00
     vertex  7.556422e-02  9.099461e-01  2.161803e+00
     vertex  1.018074e-01  9.412215e-01  2.161803e+00
   endloop
 endfacet
 facet normal  1.020665e-01 -1.216381e-01  9.873128e-01
   outer loop
     vertex  4.734415e-02  9.602735e-01  2.190211e+00
     vertex -4.898587e-17  1.000000e+00  2.200000e+00
     vertex  3.090170e-02  9.464767e-01  2.190211e+00
   endloop
 endfacet
 facet normal  2.879629e-01 -3.431808e-01  8.940382e-01
   outer loop
     vertex  4.734415e-02  9.602735e-01  2.190211e+00
     vertex  3.090170e-02  9.464767e-01  2.190211e+00
     vertex  7.556422e-02  9.099461e-01  2.161803e+00
   endloop
 endfacet
 facet normal  1.298719e-01 -1.000018e-01  9.864750e-01
   outer loop
     vertex  5.807620e-02  9.788620e-01  2.190211e+00
     vertex  5.176381e-02  1.000000e+00  2.193185e+00
     vertex -4.898587e-17  1.000000e+00  2.200000e+00
   endloop
 endfacet
 facet normal  3.826363e-01 -1.569697e-02  9.237657e-01
   outer loop
     vertex  5.807620e-02  9.788620e-01  2.190211e+00
     vertex  1.000000e-01  1.000000e+00  2.173205e+00
     vertex  5.176381e-02  1.000000e+00  2.193185e+00
   endloop
 endfacet
 facet normal  4.378935e-01 -1.561937e-01  8.853546e-01
   outer loop
     vertex  5.807620e-02  9.788620e-01  2.190211e+00
     vertex  1.157711e-01  9.795864e-01  2.161803e+00
     vertex  1.000000e-01  1.000000e+00  2.173205e+00
   endloop
 endfacet
 facet normal  3.879714e-01 -2.239954e-01  8.940382e-01
   outer loop
     vertex  5.807620e-02  9.788620e-01  2.190211e+00
     vertex  4.734415e-02  9.602735e-01  2.190211e+00
     vertex  1.018074e-01  9.412215e-01  2.161803e+00
   endloop
 endfacet
 facet normal  4.377050e-01 -1.593116e-01  8.848922e-01
   outer loop
     vertex  5.807620e-02  9.788620e-01  2.190211e+00
     vertex  1.018074e-01  9.412215e-01  2.161803e+00
     vertex  1.157711e-01  9.795864e-01  2.161803e+00
   endloop
 endfacet
 facet normal  1.375139e-01 -7.939366e-02  9.873128e-01
   outer loop
     vertex  5.807620e-02  9.788620e-01  2.190211e+00
     vertex -4.898587e-17  1.000000e+00  2.200000e+00
     vertex  4.734415e-02  9.602735e-01  2.190211e+00
   endloop
 endfacet
 facet normal  9.899990e-01 -5.398687e-02  1.303358e-01
   outer loop
     vertex  1.931852e-01  1.000000e+00  2.051764e+00
     vertex  1.931852e-01  9.633975e-01  2.036603e+00
     vertex  2.000000e-01  1.000000e+00  2.000000e+00
   endloop
 endfacet
 facet normal -9.236682e-01 -2.856605e-01  2.554118e-01
   outer loop
     vertex -1.873216e-01  9.669702e-01  2.061803e+00
     vertex -1.931852e-01  9.633975e-01  2.036603e+00
     vertex -1.732051e-01  9.292893e-01  2.070711e+00
   endloop
 endfacet
 facet normal -9.228306e-01 -4.763831e-02  3.822490e-01
   outer loop
     vertex -1.873216e-01  9.669702e-01  2.061803e+00
     vertex -1.732051e-01  1.000000e+00  2.100000e+00
     vertex -1.931852e-01  1.000000e+00  2.051764e+00
   endloop
 endfacet
 facet normal -9.660205e-01 -9.891039e-02  2.387908e-01
   outer loop
     vertex -1.873216e-01  9.669702e-01  2.061803e+00
     vertex -1.931852e-01  1.000000e+00  2.051764e+00
     vertex -1.931852e-01  9.633975e-01  2.036603e+00
   endloop
 endfacet
 facet normal -8.486577e-01 -2.024175e-01  4.886792e-01
   outer loop
     vertex -1.873216e-01  9.669702e-01  2.061803e+00
     vertex -1.732051e-01  9.292893e-01  2.070711e+00
     vertex -1.732051e-01  1.000000e+00  2.100000e+00
   endloop
 endfacet
 facet normal -7.912132e-01 -3.773942e-01  4.812020e-01
   outer loop
     vertex -1.520455e-01  9.446600e-01  2.117557e+00
     vertex -1.732051e-01  9.292893e-01  2.070711e+00
     vertex -1.414214e-01  9.000000e-01  2.100000e+00
   endloop
 endfacet
 facet normal -7.885787e-01 -1.095463e-01  6.050977e-01
   outer loop
     vertex -1.520455e-01  9.446600e-01  2.117557e+00
     vertex -1.414214e-01  1.000000e+00  2.141421e+00
     vertex -1.732051e-01  1.000000e+00  2.100000e+00
   endloop
 endfacet
 facet normal -8.703490e-01 -1.884469e-01  4.549510e-01
   outer loop
     vertex -1.520455e-01  9.446600e-01  2.117557e+00
     vertex -1.732051e-01  1.000000e+00  2.100000e+00
     vertex -1.732051e-01  9.292893e-01  2.070711e+00
   endloop
 endfacet
 facet normal -6.018222e-01 -6.610520e-01  4.481298e-01
   outer loop
     vertex -1.239486e-01  8.959948e-01  2.117557e+00
     vertex -1.414214e-01  9.000000e-01  2.100000e+00
     vertex -1.000000e-01  8.775255e-01  2.122474e+00
   endloop
 endfacet
 facet normal -6.935505e-01 -4.004215e-01  5.988742e-01
   outer loop
     vertex -1.239486e-01  8.959948e-01  2.117557e+00
     vertex -1.520455e-01  9.446600e-01  2.117557e+00
     vertex -1.414214e-01  9.000000e-01  2.100000e+00
   endloop
 endfacet
 facet normal -6.085363e-01  2.719106e-02  7.930600e-01
   outer loop
     vertex -1.157711e-01  9.795864e-01  2.161803e+00
     vertex -1.000000e-01  1.000000e+00  2.173205e+00
     vertex -1.414214e-01  1.000000e+00  2.141421e+00
   endloop
 endfacet
 facet normal -6.922953e-01 -1.695633e-01  7.014097e-01
   outer loop
     vertex -1.157711e-01  9.795864e-01  2.161803e+00
     vertex -1.414214e-01  1.000000e+00  2.141421e+00
     vertex -1.520455e-01  9.446600e-01  2.117557e+00
   endloop
 endfacet
 facet normal -6.511907e-01 -2.370140e-01  7.209542e-01
   outer loop
     vertex -1.018074e-01  9.412215e-01  2.161803e+00
     vertex -1.157711e-01  9.795864e-01  2.161803e+00
     vertex -1.520455e-01  9.446600e-01  2.117557e+00
   endloop
 endfacet
 facet normal -6.296121e-01 -3.635067e-01  6.866233e-01
   outer loop
     vertex -1.018074e-01  9.412215e-01  2.161803e+00
     vertex -1.520455e-01  9.446600e-01  2.117557e+00
     vertex -1.239486e-01  8.959948e-01  2.117557e+00
   endloop
 endfacet
 facet normal -3.809552e-01 -5.832057e-01  7.174568e-01
   outer loop
     vertex -7.556422e-02  9.099461e-01  2.161803e+00
     vertex -1.000000e-01  8.775255e-01  2.122474e+00
     vertex -5.176381e-02  8.633975e-01  2.136603e+00
   endloop
 endfacet
 facet normal -5.142375e-01 -4.770303e-01  7.127425e-01
   outer loop
     vertex -7.556422e-02  9.099461e-01  2.161803e+00
     vertex -1.239486e-01  8.959948e-01  2.117557e+00
     vertex -1.000000e-01  8.775255e-01  2.122474e+00
   endloop
 endfacet
 facet normal -5.308556e-01 -4.454407e-01  7.209542e-01
   outer loop
     vertex -7.556422e-02  9.099461e-01  2.161803e+00
     vertex -1.018074e-01  9.412215e-01  2.161803e+00
     vertex -1.239486e-01  8.959948e-01  2.117557e+00
   endloop
 endfacet
 facet normal -3.826363e-01 -1.569697e-02  9.237657e-01
   outer loop
     vertex -5.807620e-02  9.788620e-01  2.190211e+00
     vertex -5.176381e-02  1.000000e+00  2.193185e+00
     vertex -1.000000e-01  1.000000e+00  2.173205e+00
   endloop
 endfacet
 facet normal -1.298719e-01 -1.000018e-01  9.864750e-01
   outer loop
     vertex -5.807620e-02  9.788620e-01  2.190211e+00
     vertex -4.898587e-17  1.000000e+00  2.200000e+00
     vertex -5.176381e-02  1.000000e+00  2.193185e+00
   endloop
 endfacet
 facet normal -4.378935e-01 -1.561937e-01  8.853546e-01
   outer loop
     vertex -5.807620e-02  9.788620e-01  2.190211e+00
     vertex -1.000000e-01  1.000000e+00  2.173205e+00
     vertex -1.157711e-01  9.795864e-01  2.161803e+00
   endloop
 endfacet
 facet normal -4.377050e-01 -1.593116e-01  8.848922e-01
   outer loop
     vertex -5.807620e-02  9.788620e-01  2.190211e+00
     vertex -1.157711e-01  9.795864e-01  2.161803e+00
     vertex -1.018074e-01  9.412215e-01  2.161803e+00
   endloop
 endfacet
 facet normal -1.302950e-01 -6.577482e-01  7.418831e-01
   outer loop
     vertex -4.020688e-02  8.895325e-01  2.161803e+00
     vertex -5.176381e-02  8.633975e-01  2.136603e+00
     vertex  2.284771e-15  8.585786e-01  2.141421e+00
   endloop
 endfacet
 facet normal  7.933533e-01 -4.304593e-01  4.304593e-01
   outer loop
     vertex  1.732051e-01  9.292893e-01  2.070711e+00
     vertex  1.414214e-01  9.000000e-01  2.100000e+00
     vertex  1.414214e-01 -1.000000e-01  1.100000e+00
   endloop
 endfacet
 facet normal  7.933533e-01 -4.304593e-01  4.304593e-01
   outer loop
     vertex  1.732051e-01  9.292893e-01  2.070711e+00
     vertex  1.414214e-01 -1.000000e-01  1.100000e+00
     vertex  1.732051e-01 -7.071068e-02  1.070711e+00
   endloop
 endfacet
 facet normal  9.238795e-01 -2.705981e-01  2.705981e-01
   outer loop
     vertex  1.931852e-01  9.633975e-01  2.036603e+00
     vertex  1.732051e-01  9.292893e-01  2.070711e+00
     vertex  1.732051e-01 -7.071068e-02  1.070711e+00
   endloop
 endfacet
 facet normal  9.238795e-01 -2.705981e-01  2.705981e-01
   outer loop
     vertex  1.931852e-01  9.633975e-01  2.036603e+00
     vertex  1.732051e-01 -7.071068e-02  1.070711e+00
     vertex  1.931852e-01 -3.660254e-02  1.036603e+00
   endloop
 endfacet
 facet normal  9.914449e-01 -9.229596e-02  9.229596e-02
   outer loop
     vertex  2.000000e-01  1.000000e+00  2.000000e+00
     vertex  1.931852e-01  9.633975e-01  2.036603e+00
     vertex  1.931852e-01 -3.660254e-02  1.036603e+00
   endloop
 endfacet
 facet normal  9.914449e-01 -9.229596e-02  9.229596e-02
   outer loop
     vertex  2.000000e-01  1.000000e+00  2.000000e+00
     vertex  1.931852e-01 -3.660254e-02  1.036603e+00
     vertex  2.000000e-01 -4.898587e-17  1.000000e+00
   endloop
 endfacet
 facet normal -1.058302e-01  7.031358e-01 -7.031358e-01
   outer loop
     vertex -4.209435e-02  1.080987e+00  1.804480e+00
     vertex  0.000000e+00  2.000000e-01  9.171573e-01
     vertex -4.209435e-02  1.955200e-01  9.190130e-01
   endloop
 endfacet
 facet normal -1.058302e-01  7.031358e-01 -7.031358e-01
   outer loop
     vertex -4.209435e-02  1.080987e+00  1.804480e+00
     vertex  0.000000e+00  1.082843e+00  1.800000e+00
     vertex  0.000000e+00  2.000000e-01  9.171573e-01
   endloop
 endfacet
 facet normal  9.914449e-01  9.229596e-02 -9.229596e-02
   outer loop
     vertex  1.931852e-01  1.021441e+00  1.948236e+00
     vertex  2.000000e-01 -4.898587e-17  1.000000e+00
     vertex  1.931852e-01  5.176381e-02  9.785587e-01
   endloop
 endfacet
 facet normal  9.914449e-01  9.229596e-02 -9.229596e-02
   outer loop
     vertex  1.931852e-01  1.021441e+00  1.948236e+00
     vertex  2.000000e-01  1.000000e+00  2.000000e+00
     vertex  2.000000e-01 -4.898587e-17  1.000000e+00
   endloop
 endfacet
 facet normal -3.127494e-01  6.716352e-01 -6.716352e-01
   outer loop
     vertex -8.230287e-02  1.075503e+00  1.817719e+00
     vertex -4.209435e-02  1.955200e-01  9.190130e-01
     vertex -8.230287e-02  1.822807e-01  9.244969e-01
   endloop
 endfacet
 facet normal -3.127494e-01  6.716352e-01 -6.716352e-01
   outer loop
     vertex -8.230287e-02  1.075503e+00  1.817719e+00
     vertex -4.209435e-02  1.080987e+00  1.804480e+00
     vertex -4.209435e-02  1.955200e-01  9.190130e-01
   endloop
 endfacet
 facet normal  9.238795e-01  2.705981e-01 -2.705981e-01
   outer loop
     vertex  1.732051e-01  1.041421e+00  1.900000e+00
     vertex  1.931852e-01  5.176381e-02  9.785587e-01
     vertex  1.732051e-01  1.000000e-01  9.585786e-01
   endloop
 endfacet
 facet normal  9.238795e-01  2.705981e-01 -2.705981e-01
   outer loop
     vertex  1.732051e-01  1.041421e+00  1.900000e+00
     vertex  1.931852e-01  1.021441e+00  1.948236e+00
     vertex  1.931852e-01  5.176381e-02  9.785587e-01
   endloop
 endfacet
 facet normal -5.056574e-01  6.100453e-01 -6.100453e-01
   outer loop
     vertex -1.188242e-01  1.066637e+00  1.839125e+00
     vertex -8.230287e-02  1.822807e-01  9.244969e-01
     vertex -1.188242e-01  1.608751e-01  9.333633e-01
   endloop
 endfacet
 facet normal -5.056574e-01  6.100453e-01 -6.100453e-01
   outer loop
     vertex -1.188242e-01  1.066637e+00  1.839125e+00
     vertex -8.230287e-02  1.075503e+00  1.817719e+00
     vertex -8.230287e-02  1.822807e-01  9.244969e-01
   endloop
 endfacet
 facet normal  8.012538e-01  4.230794e-01 -4.230794e-01
   outer loop
     vertex  1.450749e-01  1.057025e+00  1.862329e+00
     vertex  1.732051e-01  1.000000e-01  9.585786e-01
     vertex  1.450749e-01  1.376709e-01  9.429748e-01
   endloop
 endfacet
 facet normal  8.012538e-01  4.230794e-01 -4.230794e-01
   outer loop
     vertex  1.450749e-01  1.057025e+00  1.862329e+00
     vertex  1.732051e-01  1.041421e+00  1.900000e+00
     vertex  1.732051e-01  1.000000e-01  9.585786e-01
   endloop
 endfacet
 facet normal -6.759118e-01  5.211253e-01 -5.211253e-01
   outer loop
     vertex -1.500222e-01  1.054785e+00  1.867738e+00
     vertex -1.188242e-01  1.608751e-01  9.333633e-01
     vertex -1.500222e-01  1.322624e-01  9.452151e-01
   endloop
 endfacet
 facet normal -6.759118e-01  5.211253e-01 -5.211253e-01
   outer loop
     vertex -1.500222e-01  1.054785e+00  1.867738e+00
     vertex -1.188242e-01  1.066637e+00  1.839125e+00
     vertex -1.188242e-01  1.608751e-01  9.333633e-01
   endloop
 endfacet
 facet normal  6.484521e-01  5.382889e-01 -5.382889e-01
   outer loop
     vertex  1.128493e-01  1.068395e+00  1.834879e+00
     vertex  1.450749e-01  1.376709e-01  9.429748e-01
     vertex  1.128493e-01  1.651212e-01  9.316045e-01
   endloop
 endfacet
 facet normal  6.484521e-01  5.382889e-01 -5.382889e-01
   outer loop
     vertex  1.128493e-01  1.068395e+00  1.834879e+00
     vertex  1.450749e-01  1.057025e+00  1.862329e+00
     vertex  1.450749e-01  1.376709e-01  9.429748e-01
   endloop
 endfacet
 facet normal -8.158854e-01  4.088588e-01 -4.088588e-01
   outer loop
     vertex -1.744992e-01  1.040479e+00  1.902276e+00
     vertex -1.500222e-01  1.322624e-01  9.452151e-01
     vertex -1.744992e-01  9.772425e-02  9.595213e-01
   endloop
 endfacet
 facet normal -8.158854e-01  4.088588e-01 -4.088588e-01
   outer loop
     vertex -1.744992e-01  1.040479e+00  1.902276e+00
     vertex -1.500222e-01  1.054785e+00  1.867738e+00
     vertex -1.500222e-01  1.322624e-01  9.452151e-01
   endloop
 endfacet
 facet normal  4.737040e-01  6.227377e-01 -6.227377e-01
   outer loop
     vertex  7.556816e-02  1.076702e+00  1.814826e+00
     vertex  1.128493e-01  1.651212e-01  9.316045e-01
     vertex  7.556816e-02  1.851741e-01  9.232984e-01
   endloop
 endfacet
 facet normal -9.193071e-01  2.782754e-01 -2.782754e-01
   outer loop
     vertex -1.911586e-01  1.024359e+00  1.941192e+00
     vertex -1.744992e-01  9.772425e-02  9.595213e-01
     vertex -1.911586e-01  5.880807e-02  9.756409e-01
   endloop
 endfacet
 facet normal  4.737040e-01  6.227377e-01 -6.227377e-01
   outer loop
     vertex  7.556816e-02  1.076702e+00  1.814826e+00
     vertex  1.128493e-01  1.068395e+00  1.834879e+00
     vertex  1.128493e-01  1.651212e-01  9.316045e-01
   endloop
 endfacet
 facet normal -9.193071e-01  2.782754e-01 -2.782754e-01
   outer loop
     vertex -1.911586e-01  1.024359e+00  1.941192e+00
     vertex -1.744992e-01  1.040479e+00  1.902276e+00
     vertex -1.744992e-01  9.772425e-02  9.595213e-01
   endloop
 endfacet
 facet normal  2.865246e-01  6.774598e-01 -6.774598e-01
   outer loop
     vertex  3.850439e-02  1.081293e+00  1.803741e+00
     vertex  7.556816e-02  1.851741e-01  9.232984e-01
     vertex  3.850439e-02  1.962585e-01  9.187071e-01
   endloop
 endfacet
 facet normal  2.865246e-01  6.774598e-01 -6.774598e-01
   outer loop
     vertex  3.850439e-02  1.081293e+00  1.803741e+00
     vertex  7.556816e-02  1.076702e+00  1.814826e+00
     vertex  7.556816e-02  1.851741e-01  9.232984e-01
   endloop
 endfacet
 facet normal -9.750526e-01  1.569593e-01 -1.569593e-01
   outer loop
     vertex -1.977773e-01  1.012316e+00  1.970266e+00
     vertex -1.911586e-01  5.880807e-02  9.756409e-01
     vertex -1.977773e-01  2.973449e-02  9.876836e-01
   endloop
 endfacet
 facet normal  9.671436e-02  7.037920e-01 -7.037920e-01
   outer loop
     vertex  0.000000e+00  1.082843e+00  1.800000e+00
     vertex  3.850439e-02  1.962585e-01  9.187071e-01
     vertex  0.000000e+00  2.000000e-01  9.171573e-01
   endloop
 endfacet
 facet normal  9.671436e-02  7.037920e-01 -7.037920e-01
   outer loop
     vertex  0.000000e+00  1.082843e+00  1.800000e+00
     vertex  3.850439e-02  1.081293e+00  1.803741e+00
     vertex  3.850439e-02  1.962585e-01  9.187071e-01
   endloop
 endfacet
 facet normal -9.750526e-01  1.569593e-01 -1.569593e-01
   outer loop
     vertex -1.977773e-01  1.012316e+00  1.970266e+00
     vertex -1.911586e-01  1.024359e+00  1.941192e+00
     vertex -1.911586e-01  5.880807e-02  9.756409e-01
   endloop
 endfacet
 facet normal -9.972178e-01  5.271030e-02 -5.271030e-02
   outer loop
     vertex -2.000000e-01  1.000000e+00  2.000000e+00
     vertex -1.977773e-01  2.973449e-02  9.876836e-01
     vertex -2.000000e-01 -4.873872e-15  1.000000e+00
   endloop
 endfacet
 facet normal -9.972178e-01  5.271030e-02 -5.271030e-02
   outer loop
     vertex -2.000000e-01  1.000000e+00  2.000000e+00
     vertex -1.977773e-01  1.012316e+00  1.970266e+00
     vertex -1.977773e-01  2.973449e-02  9.876836e-01
   endloop
 endfacet
 facet normal -9.914449e-01 -9.229596e-02  9.229596e-02
   outer loop
     vertex -1.931852e-01  9.633975e-01  2.036603e+00
     vertex -2.000000e-01 -4.873872e-15  1.000000e+00
     vertex -1.931852e-01 -3.660254e-02  1.036603e+00
   endloop
 endfacet
 facet normal -9.914449e-01 -9.229596e-02  9.229596e-02
   outer loop
     vertex -1.931852e-01  9.633975e-01  2.036603e+00
     vertex -2.000000e-01  1.000000e+00  2.000000e+00
     vertex -2.000000e-01 -4.873872e-15  1.000000e+00
   endloop
 endfacet
 facet normal -9.238795e-01 -2.705981e-01  2.705981e-01
   outer loop
     vertex -1.732051e-01  9.292893e-01  2.070711e+00
     vertex -1.931852e-01 -3.660254e-02  1.036603e+00
     vertex -1.732051e-01 -7.071068e-02  1.070711e+00
   endloop
 endfacet
 facet normal -9.238795e-01 -2.705981e-01  2.705981e-01
   outer loop
     vertex -1.732051e-01  9.292893e-01  2.070711e+00
     vertex -1.931852e-01  9.633975e-01  2.036603e+00
     vertex -1.931852e-01 -3.660254e-02  1.036603e+00
   endloop
 endfacet
 facet normal -7.933533e-01 -4.304593e-01  4.304593e-01
   outer loop
     vertex -1.414214e-01  9.000000e-01  2.100000e+00
     vertex -1.732051e-01  9.292893e-01  2.070711e+00
     vertex -1.732051e-01 -7.071068e-02  1.070711e+00
   endloop
 endfacet
 facet normal -7.933533e-01 -4.304593e-01  4.304593e-01
   outer loop
     vertex -1.414214e-01  9.000000e-01  2.100000e+00
     vertex -1.732051e-01 -7.071068e-02  1.070711e+00
     vertex -1.414214e-01 -1.000000e-01  1.100000e+00
   endloop
 endfacet
 facet normal -6.087614e-01 -5.609855e-01  5.609855e-01
   outer loop
     vertex -1.000000e-01  8.775255e-01  2.122474e+00
     vertex -1.414214e-01  9.000000e-01  2.100000e+00
     vertex -1.414214e-01 -1.000000e-01  1.100000e+00
   endloop
 endfacet
 facet normal -6.087614e-01 -5.609855e-01  5.609855e-01
   outer loop
     vertex -1.000000e-01  8.775255e-01  2.122474e+00
     vertex -1.414214e-01 -1.000000e-01  1.100000e+00
     vertex -1.000000e-01 -1.224745e-01  1.122474e+00
   endloop
 endfacet
 facet normal -3.826834e-01 -6.532815e-01  6.532815e-01
   outer loop
     vertex -5.176381e-02  8.633975e-01  2.136603e+00
     vertex -1.000000e-01  8.775255e-01  2.122474e+00
     vertex -1.000000e-01 -1.224745e-01  1.122474e+00
   endloop
 endfacet
 facet normal -3.826834e-01 -6.532815e-01  6.532815e-01
   outer loop
     vertex -5.176381e-02  8.633975e-01  2.136603e+00
     vertex -1.000000e-01 -1.224745e-01  1.122474e+00
     vertex -5.176381e-02 -1.366025e-01  1.136603e+00
   endloop
 endfacet
 facet normal -1.305262e-01 -7.010574e-01  7.010574e-01
   outer loop
     vertex  2.284771e-15  8.585786e-01  2.141421e+00
     vertex -5.176381e-02  8.633975e-01  2.136603e+00
     vertex -5.176381e-02 -1.366025e-01  1.136603e+00
   endloop
 endfacet
 facet normal -1.305262e-01 -7.010574e-01  7.010574e-01
   outer loop
     vertex  2.284771e-15  8.585786e-01  2.141421e+00
     vertex -5.176381e-02 -1.366025e-01  1.136603e+00
     vertex  2.195953e-15 -1.414214e-01  1.141421e+00
   endloop
 endfacet
 facet normal  1.305262e-01 -7.010574e-01  7.010574e-01
   outer loop
     vertex  5.176381e-02  8.633975e-01  2.136603e+00
     vertex  2.284771e-15  8.585786e-01  2.141421e+00
     vertex  2.195953e-15 -1.414214e-01  1.141421e+00
   endloop
 endfacet
 facet normal  1.305262e-01 -7.010574e-01  7.010574e-01
   outer loop
     vertex  5.176381e-02  8.633975e-01  2.136603e+00
     vertex  2.195953e-15 -1.414214e-01  1.141421e+00
     vertex  5.176381e-02 -1.366025e-01  1.136603e+00
   endloop
 endfacet
 facet normal  3.826834e-01 -6.532815e-01  6.532815e-01
   outer loop
     vertex  1.000000e-01  8.775255e-01  2.122474e+00
     vertex  5.176381e-02  8.633975e-01  2.136603e+00
     vertex  5.176381e-02 -1.366025e-01  1.136603e+00
   endloop
 endfacet
 facet normal  3.826834e-01 -6.532815e-01  6.532815e-01
   outer loop
     vertex  1.000000e-01  8.775255e-01  2.122474e+00
     vertex  5.176381e-02 -1.366025e-01  1.136603e+00
     vertex  1.000000e-01 -1.224745e-01  1.122474e+00
   endloop
 endfacet
 facet normal  6.087614e-01 -5.609855e-01  5.609855e-01
   outer loop
     vertex  1.414214e-01  9.000000e-01  2.100000e+00
     vertex  1.000000e-01  8.775255e-01  2.122474e+00
     vertex  1.000000e-01 -1.224745e-01  1.122474e+00
   endloop
 endfacet
 facet normal  6.087614e-01 -5.609855e-01  5.609855e-01
   outer loop
     vertex  1.414214e-01  9.000000e-01  2.100000e+00
     vertex  1.000000e-01 -1.224745e-01  1.122474e+00
     vertex  1.414214e-01 -1.000000e-01  1.100000e+00
   endloop
 endfacet
 facet normal -1.305261e-01 -9.914439e-01  1.379390e-03
   outer loop
     vertex -3.673940e-17 -2.000000e-01  1.000000e+00
     vertex -5.176381e-02 -1.931852e-01  1.000000e+00
     vertex -3.747626e-02 -1.964575e-01  0.000000e+00
   endloop
 endfacet
 facet normal -6.279048e-02 -9.980260e-01 -1.182405e-03
   outer loop
     vertex -3.673940e-17 -2.000000e-01  1.000000e+00
     vertex -3.747626e-02 -1.964575e-01  0.000000e+00
     vertex  1.255810e-02 -1.996053e-01  0.000000e+00
   endloop
 endfacet
 facet normal  1.305261e-01 -9.914441e-01  1.247883e-03
   outer loop
     vertex  5.176381e-02 -1.931852e-01  1.000000e+00
     vertex -3.673940e-17 -2.000000e-01  1.000000e+00
     vertex  1.255810e-02 -1.996053e-01  0.000000e+00
   endloop
 endfacet
 facet normal  1.873812e-01 -9.822867e-01 -1.039955e-03
   outer loop
     vertex  5.176381e-02 -1.931852e-01  1.000000e+00
     vertex  1.255810e-02 -1.996053e-01  0.000000e+00
     vertex  6.180340e-02 -1.902113e-01  0.000000e+00
   endloop
 endfacet
 facet normal  9.914449e-01  1.305262e-01  0.000000e+00
   outer loop
     vertex  1.931852e-01  5.176381e-02  9.785587e-01
     vertex  2.000000e-01 -4.898587e-17  1.000000e+00
     vertex  2.000000e-01 -4.898587e-17  0.000000e+00
   endloop
 endfacet
 facet normal  9.921147e-01  1.253332e-01  2.793620e-04
   outer loop
     vertex  1.931852e-01  5.176381e-02  9.785587e-01
     vertex  2.000000e-01 -4.898587e-17  0.000000e+00
     vertex  1.937166e-01  4.973798e-02  0.000000e+00
   endloop
 endfacet
 facet normal  9.297765e-01  3.681245e-01 -2.571260e-04
   outer loop
     vertex  1.931852e-01  5.176381e-02  9.785587e-01
     vertex  1.937166e-01  4.973798e-02  0.000000e+00
     vertex  1.752613e-01  9.635073e-02  0.000000e+00
   endloop
 endfacet
 facet normal  3.826832e-01 -9.238790e-01  1.094494e-03
   outer loop
     vertex  1.000000e-01 -1.732051e-01  1.000000e+00
     vertex  5.176381e-02 -1.931852e-01  1.000000e+00
     vertex  6.180340e-02 -1.902113e-01  0.000000e+00
   endloop
 endfacet
 facet normal  4.257791e-01 -9.048267e-01 -8.756313e-04
   outer loop
     vertex  1.000000e-01 -1.732051e-01  1.000000e+00
     vertex  6.180340e-02 -1.902113e-01  0.000000e+00
     vertex  1.071654e-01 -1.688656e-01  0.000000e+00
   endloop
 endfacet
 facet normal  8.090169e-01  5.877852e-01 -5.022423e-04
   outer loop
     vertex  1.732051e-01  1.000000e-01  9.585786e-01
     vertex  1.752613e-01  9.635073e-02  0.000000e+00
     vertex  1.457937e-01  1.369094e-01  0.000000e+00
   endloop
 endfacet
 facet normal  9.238026e-01  3.828687e-01  5.240934e-04
   outer loop
     vertex  1.732051e-01  1.000000e-01  9.585786e-01
     vertex  1.931852e-01  5.176381e-02  9.785587e-01
     vertex  1.752613e-01  9.635073e-02  0.000000e+00
   endloop
 endfacet
 facet normal  6.374238e-01 -7.705131e-01 -6.894525e-04
   outer loop
     vertex  1.414214e-01 -1.414214e-01  1.000000e+00
     vertex  1.071654e-01 -1.688656e-01  0.000000e+00
     vertex  1.457937e-01 -1.369094e-01  0.000000e+00
   endloop
 endfacet
 facet normal  6.087612e-01 -7.933530e-01  9.192404e-04
   outer loop
     vertex  1.414214e-01 -1.414214e-01  1.000000e+00
     vertex  1.000000e-01 -1.732051e-01  1.000000e+00
     vertex  1.071654e-01 -1.688656e-01  0.000000e+00
   endloop
 endfacet
 facet normal  7.933531e-01 -6.087613e-01  7.221415e-04
   outer loop
     vertex  1.732051e-01 -1.000000e-01  1.000000e+00
     vertex  1.414214e-01 -1.414214e-01  1.000000e+00
     vertex  1.457937e-01 -1.369094e-01  0.000000e+00
   endloop
 endfacet
 facet normal  8.012285e-01  5.983585e-01  1.275938e-04
   outer loop
     vertex  1.450749e-01  1.376709e-01  9.429748e-01
     vertex  1.732051e-01  1.000000e-01  9.585786e-01
     vertex  1.457937e-01  1.369094e-01  0.000000e+00
   endloop
 endfacet
 facet normal  8.090169e-01 -5.877852e-01 -4.814388e-04
   outer loop
     vertex  1.732051e-01 -1.000000e-01  1.000000e+00
     vertex  1.457937e-01 -1.369094e-01  0.000000e+00
     vertex  1.752613e-01 -9.635073e-02  0.000000e+00
   endloop
 endfacet
 facet normal  6.374238e-01  7.705130e-01 -7.922300e-04
   outer loop
     vertex  1.128493e-01  1.651212e-01  9.316045e-01
     vertex  1.457937e-01  1.369094e-01  0.000000e+00
     vertex  1.071654e-01  1.688656e-01  0.000000e+00
   endloop
 endfacet
 facet normal  9.297765e-01 -3.681245e-01 -2.516128e-04
   outer loop
     vertex  1.931852e-01 -5.176381e-02  1.000000e+00
     vertex  1.752613e-01 -9.635073e-02  0.000000e+00
     vertex  1.937166e-01 -4.973798e-02  0.000000e+00
   endloop
 endfacet
 facet normal  9.238794e-01 -3.826834e-01  5.032188e-04
   outer loop
     vertex  1.931852e-01 -5.176381e-02  1.000000e+00
     vertex  1.732051e-01 -1.000000e-01  1.000000e+00
     vertex  1.752613e-01 -9.635073e-02  0.000000e+00
   endloop
 endfacet
 facet normal  6.484767e-01  7.612345e-01 -1.203819e-04
   outer loop
     vertex  1.128493e-01  1.651212e-01  9.316045e-01
     vertex  1.450749e-01  1.376709e-01  9.429748e-01
     vertex  1.457937e-01  1.369094e-01  0.000000e+00
   endloop
 endfacet
 facet normal  9.921147e-01 -1.253332e-01  0.000000e+00
   outer loop
     vertex  2.000000e-01 -4.898587e-17  1.000000e+00
     vertex  1.937166e-01 -4.973798e-02  0.000000e+00
     vertex  2.000000e-01 -4.898587e-17  0.000000e+00
   endloop
 endfacet
 facet normal  9.914448e-01 -1.305262e-01  2.624961e-04
   outer loop
     vertex  2.000000e-01 -4.898587e-17  1.000000e+00
     vertex  1.931852e-01 -5.176381e-02  1.000000e+00
     vertex  1.937166e-01 -4.973798e-02  0.000000e+00
   endloop
 endfacet
 facet normal  4.257789e-01  9.048262e-01 -1.411207e-03
   outer loop
     vertex  7.556816e-02  1.851741e-01  9.232984e-01
     vertex  1.071654e-01  1.688656e-01  0.000000e+00
     vertex  6.180340e-02  1.902113e-01  0.000000e+00
   endloop
 endfacet
 facet normal  4.735915e-01  8.807444e-01  6.504049e-04
   outer loop
     vertex  7.556816e-02  1.851741e-01  9.232984e-01
     vertex  1.128493e-01  1.651212e-01  9.316045e-01
     vertex  1.071654e-01  1.688656e-01  0.000000e+00
   endloop
 endfacet
 facet normal  1.873810e-01  9.822858e-01 -1.713621e-03
   outer loop
     vertex  3.850439e-02  1.962585e-01  9.187071e-01
     vertex  6.180340e-02  1.902113e-01  0.000000e+00
     vertex  1.255810e-02  1.996053e-01  0.000000e+00
   endloop
 endfacet
 facet normal  2.864156e-01  9.581050e-01  9.571250e-04
   outer loop
     vertex  3.850439e-02  1.962585e-01  9.187071e-01
     vertex  7.556816e-02  1.851741e-01  9.232984e-01
     vertex  6.180340e-02  1.902113e-01  0.000000e+00
   endloop
 endfacet
 facet normal -6.279047e-02  9.980259e-01 -1.289206e-03
   outer loop
     vertex  0.000000e+00  2.000000e-01  9.171573e-01
     vertex  1.255810e-02  1.996053e-01  0.000000e+00
     vertex -3.747626e-02  1.964575e-01  0.000000e+00
   endloop
 endfacet
 facet normal  9.667862e-02  9.953152e-01  8.954786e-04
   outer loop
     vertex  0.000000e+00  2.000000e-01  9.171573e-01
     vertex  3.850439e-02  1.962585e-01  9.187071e-01
     vertex  1.255810e-02  1.996053e-01  0.000000e+00
   endloop
 endfacet
 facet normal -3.090169e-01  9.510564e-01 -5.826773e-04
   outer loop
     vertex -4.209435e-02  1.955200e-01  9.190130e-01
     vertex -3.747626e-02  1.964575e-01  0.000000e+00
     vertex -8.515586e-02  1.809654e-01  0.000000e+00
   endloop
 endfacet
 facet normal -1.058091e-01  9.943863e-01  4.826525e-04
   outer loop
     vertex -4.209435e-02  1.955200e-01  9.190130e-01
     vertex  0.000000e+00  2.000000e-01  9.171573e-01
     vertex -3.747626e-02  1.964575e-01  0.000000e+00
   endloop
 endfacet
 facet normal -3.127969e-01  9.498200e-01 -3.859835e-04
   outer loop
     vertex -8.230287e-02  1.822807e-01  9.244969e-01
     vertex -4.209435e-02  1.955200e-01  9.190130e-01
     vertex -8.515586e-02  1.809654e-01  0.000000e+00
   endloop
 endfacet
 facet normal -5.358264e-01  8.443274e-01 -1.154554e-03
   outer loop
     vertex -1.188242e-01  1.608751e-01  9.333633e-01
     vertex -8.515586e-02  1.809654e-01  0.000000e+00
     vertex -1.274848e-01  1.541026e-01  0.000000e+00
   endloop
 endfacet
 facet normal -5.055972e-01  8.627696e-01  3.328392e-04
   outer loop
     vertex -1.188242e-01  1.608751e-01  9.333633e-01
     vertex -8.230287e-02  1.822807e-01  9.244969e-01
     vertex -8.515586e-02  1.809654e-01  0.000000e+00
   endloop
 endfacet
 facet normal -7.289677e-01  6.845463e-01 -1.564057e-03
   outer loop
     vertex -1.500222e-01  1.322624e-01  9.452151e-01
     vertex -1.274848e-01  1.541026e-01  0.000000e+00
     vertex -1.618034e-01  1.175571e-01  0.000000e+00
   endloop
 endfacet
 facet normal -6.757215e-01  7.371565e-01  9.211495e-04
   outer loop
     vertex -1.500222e-01  1.322624e-01  9.452151e-01
     vertex -1.188242e-01  1.608751e-01  9.333633e-01
     vertex -1.274848e-01  1.541026e-01  0.000000e+00
   endloop
 endfacet
 facet normal -8.156570e-01  5.785347e-01  1.165731e-03
   outer loop
     vertex -1.744992e-01  9.772425e-02  9.595213e-01
     vertex -1.500222e-01  1.322624e-01  9.452151e-01
     vertex -1.618034e-01  1.175571e-01  0.000000e+00
   endloop
 endfacet
 facet normal -8.763055e-01  4.817530e-01 -1.637159e-03
   outer loop
     vertex -1.744992e-01  9.772425e-02  9.595213e-01
     vertex -1.618034e-01  1.175571e-01  0.000000e+00
     vertex -1.859553e-01  7.362491e-02  0.000000e+00
   endloop
 endfacet
 facet normal -9.191446e-01  3.939188e-01  1.080359e-03
   outer loop
     vertex -1.911586e-01  5.880807e-02  9.756409e-01
     vertex -1.744992e-01  9.772425e-02  9.595213e-01
     vertex -1.859553e-01  7.362491e-02  0.000000e+00
   endloop
 endfacet
 facet normal -9.685822e-01  2.486896e-01 -1.388865e-03
   outer loop
     vertex -1.911586e-01  5.880807e-02  9.756409e-01
     vertex -1.859553e-01  7.362491e-02  0.000000e+00
     vertex -1.984229e-01  2.506665e-02  0.000000e+00
   endloop
 endfacet
 facet normal -9.750893e-01  2.218121e-01 -4.108871e-04
   outer loop
     vertex -1.977773e-01  2.973449e-02  9.876836e-01
     vertex -1.911586e-01  5.880807e-02  9.756409e-01
     vertex -1.984229e-01  2.506665e-02  0.000000e+00
   endloop
 endfacet
 facet normal -9.972085e-01  7.466677e-02  2.989881e-04
   outer loop
     vertex -2.000000e-01 -4.873872e-15  1.000000e+00
     vertex -1.977773e-01  2.973449e-02  9.876836e-01
     vertex -1.984229e-01  2.506665e-02  0.000000e+00
   endloop
 endfacet
 facet normal -9.999988e-01  1.107270e-15 -1.577058e-03
   outer loop
     vertex -2.000000e-01 -4.873872e-15  1.000000e+00
     vertex -1.984229e-01  2.506665e-02  0.000000e+00
     vertex -1.984229e-01 -2.506665e-02  0.000000e+00
   endloop
 endfacet
 facet normal -9.914434e-01 -1.305260e-01  1.708284e-03
   outer loop
     vertex -1.931852e-01 -5.176381e-02  1.000000e+00
     vertex -2.000000e-01 -4.873872e-15  1.000000e+00
     vertex -1.984229e-01 -2.506665e-02  0.000000e+00
   endloop
 endfacet
 facet normal -9.685820e-01 -2.486896e-01 -1.566092e-03
   outer loop
     vertex -1.931852e-01 -5.176381e-02  1.000000e+00
     vertex -1.984229e-01 -2.506665e-02  0.000000e+00
     vertex -1.859553e-01 -7.362491e-02  0.000000e+00
   endloop
 endfacet
 facet normal -9.238782e-01 -3.826829e-01  1.686352e-03
   outer loop
     vertex -1.732051e-01 -1.000000e-01  1.000000e+00
     vertex -1.931852e-01 -5.176381e-02  1.000000e+00
     vertex -1.859553e-01 -7.362491e-02  0.000000e+00
   endloop
 endfacet
 facet normal -8.763057e-01 -4.817531e-01 -1.533195e-03
   outer loop
     vertex -1.732051e-01 -1.000000e-01  1.000000e+00
     vertex -1.859553e-01 -7.362491e-02  0.000000e+00
     vertex -1.618034e-01 -1.175571e-01  0.000000e+00
   endloop
 endfacet
 facet normal -7.933523e-01 -6.087606e-01  1.642491e-03
   outer loop
     vertex -1.414214e-01 -1.414214e-01  1.000000e+00
     vertex -1.732051e-01 -1.000000e-01  1.000000e+00
     vertex -1.618034e-01 -1.175571e-01  0.000000e+00
   endloop
 endfacet
 facet normal -7.289678e-01 -6.845464e-01 -1.478370e-03
   outer loop
     vertex -1.414214e-01 -1.414214e-01  1.000000e+00
     vertex -1.618034e-01 -1.175571e-01  0.000000e+00
     vertex -1.274848e-01 -1.541026e-01  0.000000e+00
   endloop
 endfacet
 facet normal -6.087607e-01 -7.933524e-01  1.576705e-03
   outer loop
     vertex -1.000000e-01 -1.732051e-01  1.000000e+00
     vertex -1.414214e-01 -1.414214e-01  1.000000e+00
     vertex -1.274848e-01 -1.541026e-01  0.000000e+00
   endloop
 endfacet
 facet normal -5.358263e-01 -8.443271e-01 -1.401624e-03
   outer loop
     vertex -1.000000e-01 -1.732051e-01  1.000000e+00
     vertex -1.274848e-01 -1.541026e-01  0.000000e+00
     vertex -8.515586e-02 -1.809654e-01  0.000000e+00
   endloop
 endfacet
 facet normal -3.826830e-01 -9.238785e-01  1.489001e-03
   outer loop
     vertex -5.176381e-02 -1.931852e-01  1.000000e+00
     vertex -1.000000e-01 -1.732051e-01  1.000000e+00
     vertex -8.515586e-02 -1.809654e-01  0.000000e+00
   endloop
 endfacet
 facet normal -3.090167e-01 -9.510557e-01 -1.302966e-03
   outer loop
     vertex -5.176381e-02 -1.931852e-01  1.000000e+00
     vertex -8.515586e-02 -1.809654e-01  0.000000e+00
     vertex -3.747626e-02 -1.964575e-01  0.000000e+00
   endloop
 endfacet
 facet normal  7.222755e-01 -6.060611e-01  3.331787e-01
   outer loop
     vertex  1.326828e-01 -1.113341e-01  1.100000e+00
     vertex  1.241770e-01 -1.479884e-01  1.051764e+00
     vertex  1.673033e-01 -9.659258e-02  1.051764e+00
   endloop
 endfacet
 facet normal -9.899990e-01 -1.303358e-01  5.398687e-02
   outer loop
     vertex -1.931852e-01 -3.660254e-02  1.036603e+00
     vertex -2.000000e-01 -4.873872e-15  1.000000e+00
     vertex -1.931852e-01 -5.176381e-02  1.000000e+00
   endloop
 endfacet
 facet normal  9.899990e-01 -1.303358e-01  5.398687e-02
   outer loop
     vertex  1.931852e-01 -3.660254e-02  1.036603e+00
     vertex  1.931852e-01 -5.176381e-02  1.000000e+00
     vertex  2.000000e-01 -4.898587e-17  1.000000e+00
   endloop
 endfacet
 facet normal -9.161086e-01 -3.794646e-01  1.294283e-01
   outer loop
     vertex -1.673033e-01 -9.659258e-02  1.051764e+00
     vertex -1.931852e-01 -5.176381e-02  1.000000e+00
     vertex -1.732051e-01 -1.000000e-01  1.000000e+00
   endloop
 endfacet
 facet normal -7.866803e-01 -6.036410e-01  1.294283e-01
   outer loop
     vertex -1.673033e-01 -9.659258e-02  1.051764e+00
     vertex -1.732051e-01 -1.000000e-01  1.000000e+00
     vertex -1.414214e-01 -1.414214e-01  1.000000e+00
   endloop
 endfacet
 facet normal -9.180563e-01 -3.481590e-01  1.896259e-01
   outer loop
     vertex -1.673033e-01 -9.659258e-02  1.051764e+00
     vertex -1.732051e-01 -7.071068e-02  1.070711e+00
     vertex -1.931852e-01 -3.660254e-02  1.036603e+00
   endloop
 endfacet
 facet normal -7.922189e-01 -4.676443e-01  3.920433e-01
   outer loop
     vertex -1.673033e-01 -9.659258e-02  1.051764e+00
     vertex -1.414214e-01 -1.000000e-01  1.100000e+00
     vertex -1.732051e-01 -7.071068e-02  1.070711e+00
   endloop
 endfacet
 facet normal -9.210817e-01 -3.597304e-01  1.490052e-01
   outer loop
     vertex -1.673033e-01 -9.659258e-02  1.051764e+00
     vertex -1.931852e-01 -3.660254e-02  1.036603e+00
     vertex -1.931852e-01 -5.176381e-02  1.000000e+00
   endloop
 endfacet
 facet normal -6.056100e-01 -7.892463e-01  1.016213e-01
   outer loop
     vertex -1.241770e-01 -1.479884e-01  1.051764e+00
     vertex -1.414214e-01 -1.414214e-01  1.000000e+00
     vertex -1.000000e-01 -1.732051e-01  1.000000e+00
   endloop
 endfacet
 facet normal -7.547497e-01 -6.333102e-01  1.710879e-01
   outer loop
     vertex -1.241770e-01 -1.479884e-01  1.051764e+00
     vertex -1.673033e-01 -9.659258e-02  1.051764e+00
     vertex -1.414214e-01 -1.414214e-01  1.000000e+00
   endloop
 endfacet
 facet normal -7.194625e-01 -6.037007e-01  3.433936e-01
   outer loop
     vertex -1.241770e-01 -1.479884e-01  1.051764e+00
     vertex -1.414214e-01 -1.000000e-01  1.100000e+00
     vertex -1.673033e-01 -9.659258e-02  1.051764e+00
   endloop
 endfacet
 facet normal -3.807023e-01 -9.190968e-01  1.016213e-01
   outer loop
     vertex -6.607322e-02 -1.815347e-01  1.051764e+00
     vertex -1.000000e-01 -1.732051e-01  1.000000e+00
     vertex -5.176381e-02 -1.931852e-01  1.000000e+00
   endloop
 endfacet
 facet normal -4.913602e-01 -8.510609e-01  1.850961e-01
   outer loop
     vertex -6.607322e-02 -1.815347e-01  1.051764e+00
     vertex -1.241770e-01 -1.479884e-01  1.051764e+00
     vertex -1.000000e-01 -1.732051e-01  1.000000e+00
   endloop
 endfacet
 facet normal -6.019788e-01 -6.599953e-01  4.494751e-01
   outer loop
     vertex -8.660254e-02 -1.500000e-01  1.100000e+00
     vertex -1.000000e-01 -1.224745e-01  1.122474e+00
     vertex -1.414214e-01 -1.000000e-01  1.100000e+00
   endloop
 endfacet
 facet normal -3.821734e-01 -6.889069e-01  6.159146e-01
   outer loop
     vertex -8.660254e-02 -1.500000e-01  1.100000e+00
     vertex -5.176381e-02 -1.366025e-01  1.136603e+00
     vertex -1.000000e-01 -1.224745e-01  1.122474e+00
   endloop
 endfacet
 facet normal -6.041560e-01 -6.623824e-01  4.429956e-01
   outer loop
     vertex -8.660254e-02 -1.500000e-01  1.100000e+00
     vertex -1.414214e-01 -1.000000e-01  1.100000e+00
     vertex -1.241770e-01 -1.479884e-01  1.051764e+00
   endloop
 endfacet
 facet normal -4.714319e-01 -8.165439e-01  3.331787e-01
   outer loop
     vertex -8.660254e-02 -1.500000e-01  1.100000e+00
     vertex -1.241770e-01 -1.479884e-01  1.051764e+00
     vertex -6.607322e-02 -1.815347e-01  1.051764e+00
   endloop
 endfacet
 facet normal -1.294283e-01 -9.831056e-01  1.294283e-01
   outer loop
     vertex -2.070704e-16 -1.931852e-01  1.051764e+00
     vertex -5.176381e-02 -1.931852e-01  1.000000e+00
     vertex -3.673940e-17 -2.000000e-01  1.000000e+00
   endloop
 endfacet
 facet normal  1.294283e-01 -9.831056e-01  1.294283e-01
   outer loop
     vertex -2.070704e-16 -1.931852e-01  1.051764e+00
     vertex -3.673940e-17 -2.000000e-01  1.000000e+00
     vertex  5.176381e-02 -1.931852e-01  1.000000e+00
   endloop
 endfacet
 facet normal -1.710879e-01 -9.702875e-01  1.710879e-01
   outer loop
     vertex -2.070704e-16 -1.931852e-01  1.051764e+00
     vertex -6.607322e-02 -1.815347e-01  1.051764e+00
     vertex -5.176381e-02 -1.931852e-01  1.000000e+00
   endloop
 endfacet
 facet normal -1.299571e-01 -7.639612e-01  6.320399e-01
   outer loop
     vertex -3.007675e-02 -1.705737e-01  1.100000e+00
     vertex  2.195953e-15 -1.414214e-01  1.141421e+00
     vertex -5.176381e-02 -1.366025e-01  1.136603e+00
   endloop
 endfacet
 facet normal -2.842070e-01 -7.808525e-01  5.563235e-01
   outer loop
     vertex -3.007675e-02 -1.705737e-01  1.100000e+00
     vertex -5.176381e-02 -1.366025e-01  1.136603e+00
     vertex -8.660254e-02 -1.500000e-01  1.100000e+00
   endloop
 endfacet
 facet normal -3.096834e-01 -8.508480e-01  4.244453e-01
   outer loop
     vertex -3.007675e-02 -1.705737e-01  1.100000e+00
     vertex -8.660254e-02 -1.500000e-01  1.100000e+00
     vertex -6.607322e-02 -1.815347e-01  1.051764e+00
   endloop
 endfacet
 facet normal -1.637266e-01 -9.285395e-01  3.331787e-01
   outer loop
     vertex -3.007675e-02 -1.705737e-01  1.100000e+00
     vertex -6.607322e-02 -1.815347e-01  1.051764e+00
     vertex -2.070704e-16 -1.931852e-01  1.051764e+00
   endloop
 endfacet
 facet normal  3.807023e-01 -9.190968e-01  1.016213e-01
   outer loop
     vertex  6.607322e-02 -1.815347e-01  1.051764e+00
     vertex  5.176381e-02 -1.931852e-01  1.000000e+00
     vertex  1.000000e-01 -1.732051e-01  1.000000e+00
   endloop
 endfacet
 facet normal  1.710879e-01 -9.702875e-01  1.710879e-01
   outer loop
     vertex  6.607322e-02 -1.815347e-01  1.051764e+00
     vertex -2.070704e-16 -1.931852e-01  1.051764e+00
     vertex  5.176381e-02 -1.931852e-01  1.000000e+00
   endloop
 endfacet
 facet normal  1.299571e-01 -7.639612e-01  6.320399e-01
   outer loop
     vertex  3.007675e-02 -1.705737e-01  1.100000e+00
     vertex  5.176381e-02 -1.366025e-01  1.136603e+00
     vertex  2.195953e-15 -1.414214e-01  1.141421e+00
   endloop
 endfacet
 facet normal -8.355752e-16 -9.054536e-01  4.244453e-01
   outer loop
     vertex  3.007675e-02 -1.705737e-01  1.100000e+00
     vertex -3.007675e-02 -1.705737e-01  1.100000e+00
     vertex -2.070704e-16 -1.931852e-01  1.051764e+00
   endloop
 endfacet
 facet normal -7.828501e-16 -8.177694e-01  5.755461e-01
   outer loop
     vertex  3.007675e-02 -1.705737e-01  1.100000e+00
     vertex  2.195953e-15 -1.414214e-01  1.141421e+00
     vertex -3.007675e-02 -1.705737e-01  1.100000e+00
   endloop
 endfacet
 facet normal  1.637266e-01 -9.285395e-01  3.331787e-01
   outer loop
     vertex  3.007675e-02 -1.705737e-01  1.100000e+00
     vertex -2.070704e-16 -1.931852e-01  1.051764e+00
     vertex  6.607322e-02 -1.815347e-01  1.051764e+00
   endloop
 endfacet
 facet normal  6.056100e-01 -7.892463e-01  1.016213e-01
   outer loop
     vertex  1.241770e-01 -1.479884e-01  1.051764e+00
     vertex  1.000000e-01 -1.732051e-01  1.000000e+00
     vertex  1.414214e-01 -1.414214e-01  1.000000e+00
   endloop
 endfacet
 facet normal  4.913602e-01 -8.510609e-01  1.850961e-01
   outer loop
     vertex  1.241770e-01 -1.479884e-01  1.051764e+00
     vertex  6.607322e-02 -1.815347e-01  1.051764e+00
     vertex  1.000000e-01 -1.732051e-01  1.000000e+00
   endloop
 endfacet
 facet normal  3.821734e-01 -6.889069e-01  6.159146e-01
   outer loop
     vertex  8.660254e-02 -1.500000e-01  1.100000e+00
     vertex  1.000000e-01 -1.224745e-01  1.122474e+00
     vertex  5.176381e-02 -1.366025e-01  1.136603e+00
   endloop
 endfacet
 facet normal  3.096834e-01 -8.508480e-01  4.244453e-01
   outer loop
     vertex  8.660254e-02 -1.500000e-01  1.100000e+00
     vertex  3.007675e-02 -1.705737e-01  1.100000e+00
     vertex  6.607322e-02 -1.815347e-01  1.051764e+00
   endloop
 endfacet
 facet normal  4.714319e-01 -8.165439e-01  3.331787e-01
   outer loop
     vertex  8.660254e-02 -1.500000e-01  1.100000e+00
     vertex  6.607322e-02 -1.815347e-01  1.051764e+00
     vertex  1.241770e-01 -1.479884e-01  1.051764e+00
   endloop
 endfacet
 facet normal  2.842070e-01 -7.808525e-01  5.563235e-01
   outer loop
     vertex  8.660254e-02 -1.500000e-01  1.100000e+00
     vertex  5.176381e-02 -1.366025e-01  1.136603e+00
     vertex  3.007675e-02 -1.705737e-01  1.100000e+00
   endloop
 endfacet
 facet normal  7.866803e-01 -6.036410e-01  1.294283e-01
   outer loop
     vertex  1.673033e-01 -9.659258e-02  1.051764e+00
     vertex  1.414214e-01 -1.414214e-01  1.000000e+00
     vertex  1.732051e-01 -1.000000e-01  1.000000e+00
   endloop
 endfacet
 facet normal  9.161086e-01 -3.794646e-01  1.294283e-01
   outer loop
     vertex  1.673033e-01 -9.659258e-02  1.051764e+00
     vertex  1.732051e-01 -1.000000e-01  1.000000e+00
     vertex  1.931852e-01 -5.176381e-02  1.000000e+00
   endloop
 endfacet
 facet normal  7.922189e-01 -4.676443e-01  3.920433e-01
   outer loop
     vertex  1.673033e-01 -9.659258e-02  1.051764e+00
     vertex  1.732051e-01 -7.071068e-02  1.070711e+00
     vertex  1.414214e-01 -1.000000e-01  1.100000e+00
   endloop
 endfacet
 facet normal  9.180563e-01 -3.481590e-01  1.896259e-01
   outer loop
     vertex  1.673033e-01 -9.659258e-02  1.051764e+00
     vertex  1.931852e-01 -3.660254e-02  1.036603e+00
     vertex  1.732051e-01 -7.071068e-02  1.070711e+00
   endloop
 endfacet
 facet normal  7.547497e-01 -6.333102e-01  1.710879e-01
   outer loop
     vertex  1.673033e-01 -9.659258e-02  1.051764e+00
     vertex  1.241770e-01 -1.479884e-01  1.051764e+00
     vertex  1.414214e-01 -1.414214e-01  1.000000e+00
   endloop
 endfacet
 facet normal  9.210817e-01 -3.597304e-01  1.490052e-01
   outer loop
     vertex  1.673033e-01 -9.659258e-02  1.051764e+00
     vertex  1.931852e-01 -5.176381e-02  1.000000e+00
     vertex  1.931852e-01 -3.660254e-02  1.036603e+00
   endloop
 endfacet
 facet normal  6.037136e-01 -4.654627e-01  6.472050e-01
   outer loop
     vertex  1.326828e-01 -1.113341e-01  1.100000e+00
     vertex  1.414214e-01 -1.000000e-01  1.100000e+00
     vertex  1.000000e-01 -1.224745e-01  1.122474e+00
   endloop
 endfacet
 facet normal  5.820143e-01 -6.936177e-01  4.244453e-01
   outer loop
     vertex  1.326828e-01 -1.113341e-01  1.100000e+00
     vertex  8.660254e-02 -1.500000e-01  1.100000e+00
     vertex  1.241770e-01 -1.479884e-01  1.051764e+00
   endloop
 endfacet
 facet normal  5.620225e-01 -6.697923e-01  4.852927e-01
   outer loop
     vertex  1.326828e-01 -1.113341e-01  1.100000e+00
     vertex  1.000000e-01 -1.224745e-01  1.122474e+00
     vertex  8.660254e-02 -1.500000e-01  1.100000e+00
   endloop
 endfacet
 facet normal  7.398558e-01 -5.704282e-01  3.566863e-01
   outer loop
     vertex  1.326828e-01 -1.113341e-01  1.100000e+00
     vertex  1.673033e-01 -9.659258e-02  1.051764e+00
     vertex  1.414214e-01 -1.000000e-01  1.100000e+00
   endloop
 endfacet
 facet normal -0.000000e+00 -0.000000e+00 -1.000000e+00
   outer loop
     vertex  1.937166e-01  4.973798e-02  0.000000e+00
     vertex  2.000000e-01 -4.898587e-17  0.000000e+00
     vertex  1.457937e-01  1.369094e-01  0.000000e+00
   endloop
 endfacet
 facet normal -0.000000e+00 -0.000000e+00 -1.000000e+00
   outer loop
     vertex  1.752613e-01  9.635073e-02  0.000000e+00
     vertex  1.937166e-01  4.973798e-02  0.000000e+00
     vertex  1.457937e-01  1.369094e-01  0.000000e+00
   endloop
 endfacet
 facet normal  0.000000e+00  0.000000e+00 -1.000000e+00
   outer loop
     vertex  6.180340e-02  1.902113e-01  0.000000e+00
     vertex  1.071654e-01  1.688656e-01  0.000000e+00
     vertex  1.457937e-01  1.369094e-01  0.000000e+00
   endloop
 endfacet
 facet normal  0.000000e+00  0.000000e+00 -1.000000e+00
   outer loop
     vertex  1.255810e-02  1.996053e-01  0.000000e+00
     vertex  6.180340e-02  1.902113e-01  0.000000e+00
     vertex  1.457937e-01  1.369094e-01  0.000000e+00
   endloop
 endfacet
 facet normal  0.000000e+00  0.000000e+00 -1.000000e+00
   outer loop
     vertex -3.747626e-02  1.964575e-01  0.000000e+00
     vertex  1.255810e-02  1.996053e-01  0.000000e+00
     vertex  1.457937e-01  1.369094e-01  0.000000e+00
   endloop
 endfacet
 facet normal  0.000000e+00  0.000000e+00 -1.000000e+00
   outer loop
     vertex -8.515586e-02  1.809654e-01  0.000000e+00
     vertex -3.747626e-02  1.964575e-01  0.000000e+00
     vertex  1.457937e-01  1.369094e-01  0.000000e+00
   endloop
 endfacet
 facet normal  0.000000e+00  0.000000e+00 -1.000000e+00
   outer loop
     vertex -1.274848e-01  1.541026e-01  0.000000e+00
     vertex -8.515586e-02  1.809654e-01  0.000000e+00
     vertex  1.457937e-01  1.369094e-01  0.000000e+00
   endloop
 endfacet
 facet normal  0.000000e+00  0.000000e+00 -1.000000e+00
   outer loop
     vertex -1.618034e-01  1.175571e-01  0.000000e+00
     vertex -1.274848e-01  1.541026e-01  0.000000e+00
     vertex  1.457937e-01  1.369094e-01  0.000000e+00
   endloop
 endfacet
 facet normal  0.000000e+00  0.000000e+00 -1.000000e+00
   outer loop
     vertex -1.859553e-01  7.362491e-02  0.000000e+00
     vertex -1.618034e-01  1.175571e-01  0.000000e+00
     vertex  1.457937e-01  1.369094e-01  0.000000e+00
   endloop
 endfacet
 facet normal  0.000000e+00  0.000000e+00 -1.000000e+00
   outer loop
     vertex -1.984229e-01  2.506665e-02  0.000000e+00
     vertex -1.859553e-01  7.362491e-02  0.000000e+00
     vertex  1.457937e-01  1.369094e-01  0.000000e+00
   endloop
 endfacet
 facet normal  0.000000e+00  0.000000e+00 -1.000000e+00
   outer loop
     vertex -1.984229e-01 -2.506665e-02  0.000000e+00
     vertex -1.984229e-01  2.506665e-02  0.000000e+00
     vertex  1.457937e-01  1.369094e-01  0.000000e+00
   endloop
 endfacet
 facet normal  0.000000e+00  0.000000e+00 -1.000000e+00
   outer loop
     vertex -1.859553e-01 -7.362491e-02  0.000000e+00
     vertex -1.984229e-01 -2.506665e-02  0.000000e+00
     vertex  1.457937e-01  1.369094e-01  0.000000e+00
   endloop
 endfacet
 facet normal  0.000000e+00  0.000000e+00 -1.000000e+00
   outer loop
     vertex -1.618034e-01 -1.175571e-01  0.000000e+00
     vertex -1.859553e-01 -7.362491e-02  0.000000e+00
     vertex  1.457937e-01  1.369094e-01  0.000000e+00
   endloop
 endfacet
 facet normal  0.000000e+00  0.000000e+00 -1.000000e+00
   outer loop
     vertex -1.274848e-01 -1.541026e-01  0.000000e+00
     vertex -1.618034e-01 -1.175571e-01  0.000000e+00
     vertex  1.457937e-01  1.369094e-01  0.000000e+00
   endloop
 endfacet
 facet normal  0.000000e+00  0.000000e+00 -1.000000e+00
   outer loop
     vertex -8.515586e-02 -1.809654e-01  0.000000e+00
     vertex -1.274848e-01 -1.541026e-01  0.000000e+00
     vertex  1.457937e-01  1.369094e-01  0.000000e+00
   endloop
 endfacet
 facet normal  0.000000e+00  0.000000e+00 -1.000000e+00
   outer loop
     vertex -3.747626e-02 -1.964575e-01  0.000000e+00
     vertex -8.515586e-02 -1.809654e-01  0.000000e+00
     vertex  1.457937e-01  1.369094e-01  0.000000e+00
   endloop
 endfacet
 facet normal  0.000000e+00  0.000000e+00 -1.000000e+00
   outer loop
     vertex  1.255810e-02 -1.996053e-01  0.000000e+00
     vertex -3.747626e-02 -1.964575e-01  0.000000e+00
     vertex  1.457937e-01  1.369094e-01  0.000000e+00
   endloop
 endfacet
 facet normal -0.000000e+00  0.000000e+00 -1.000000e+00
   outer loop
     vertex  6.180340e-02 -1.902113e-01  0.000000e+00
     vertex  1.255810e-02 -1.996053e-01  0.000000e+00
     vertex  1.457937e-01  1.369094e-01  0.000000e+00
   endloop
 endfacet
 facet normal -0.000000e+00  0.000000e+00 -1.000000e+00
   outer loop
     vertex  1.071654e-01 -1.688656e-01  0.000000e+00
     vertex  6.180340e-02 -1.902113e-01  0.000000e+00
     vertex  1.457937e-01  1.369094e-01  0.000000e+00
   endloop
 endfacet
 facet normal -0.000000e+00  0.000000e+00 -1.000000e+00
   outer loop
     vertex  1.457937e-01 -1.369094e-01  0.000000e+00
     vertex  1.071654e-01 -1.688656e-01  0.000000e+00
     vertex  1.457937e-01  1.369094e-01  0.000000e+00
   endloop
 endfacet
 facet normal -0.000000e+00  0.000000e+00 -1.000000e+00
   outer loop
     vertex  1.752613e-01 -9.635073e-02  0.000000e+00
     vertex  1.457937e-01 -1.369094e-01  0.000000e+00
     vertex  1.457937e-01  1.369094e-01  0.000000e+00
   endloop
 endfacet
 facet normal -0.000000e+00  0.000000e+00 -1.000000e+00
   outer loop
     vertex  1.937166e-01 -4.973798e-02  0.000000e+00
     vertex  1.752613e-01 -9.635073e-02  0.000000e+00
     vertex  1.457937e-01  1.369094e-01  0.000000e+00
   endloop
 endfacet
 facet normal -0.000000e+00  0.000000e+00 -1.000000e+00
   outer loop
     vertex  2.000000e-01 -4.898587e-17  0.000000e+00
     vertex  1.937166e-01 -4.973798e-02  0.000000e+00
     vertex  1.457937e-01  1.369094e-01  0.000000e+00
   endloop
 endfacet
endsolid
